<mxfile host="app.diagrams.net" modified="2024-01-08T19:33:07.202Z" agent="Mozilla/5.0 (Macintosh; Intel Mac OS X 10_12_6) AppleWebKit/537.36 (KHTML, like Gecko) Chrome/103.0.0.0 Safari/537.36" etag="RGX-vRKMAHxVHrokK2F3" version="22.1.17" type="google" pages="12">
  <diagram name="Oeuvre Overall" id="ESLob9bhuA12v1JJoHbf">
    <mxGraphModel grid="1" page="1" gridSize="10" guides="1" tooltips="1" connect="1" arrows="1" fold="1" pageScale="1" pageWidth="1169" pageHeight="827" math="0" shadow="0">
      <root>
        <mxCell id="0" />
        <mxCell id="1" parent="0" />
        <mxCell id="5Xv1c-DgIOiUIg8Ju9nj-1" style="edgeStyle=orthogonalEdgeStyle;rounded=0;orthogonalLoop=1;jettySize=auto;html=1;exitX=0;exitY=0.5;exitDx=0;exitDy=0;entryX=1;entryY=0.5;entryDx=0;entryDy=0;" edge="1" parent="1" source="5Xv1c-DgIOiUIg8Ju9nj-10" target="5Xv1c-DgIOiUIg8Ju9nj-40">
          <mxGeometry relative="1" as="geometry">
            <Array as="points">
              <mxPoint x="450" y="414" />
              <mxPoint x="450" y="640" />
            </Array>
          </mxGeometry>
        </mxCell>
        <mxCell id="5Xv1c-DgIOiUIg8Ju9nj-2" style="edgeStyle=orthogonalEdgeStyle;rounded=0;orthogonalLoop=1;jettySize=auto;html=1;exitX=0.5;exitY=0;exitDx=0;exitDy=0;entryX=0.5;entryY=1;entryDx=0;entryDy=0;strokeWidth=3;" edge="1" parent="1" source="5Xv1c-DgIOiUIg8Ju9nj-10" target="5Xv1c-DgIOiUIg8Ju9nj-11">
          <mxGeometry relative="1" as="geometry" />
        </mxCell>
        <mxCell id="5Xv1c-DgIOiUIg8Ju9nj-3" style="edgeStyle=orthogonalEdgeStyle;rounded=0;orthogonalLoop=1;jettySize=auto;html=1;exitX=1;exitY=0.5;exitDx=0;exitDy=0;" edge="1" parent="1" source="5Xv1c-DgIOiUIg8Ju9nj-10" target="5Xv1c-DgIOiUIg8Ju9nj-19">
          <mxGeometry relative="1" as="geometry" />
        </mxCell>
        <mxCell id="5Xv1c-DgIOiUIg8Ju9nj-4" style="edgeStyle=orthogonalEdgeStyle;rounded=0;orthogonalLoop=1;jettySize=auto;html=1;exitX=1;exitY=0.5;exitDx=0;exitDy=0;entryX=0;entryY=0.5;entryDx=0;entryDy=0;" edge="1" parent="1" source="5Xv1c-DgIOiUIg8Ju9nj-10" target="5Xv1c-DgIOiUIg8Ju9nj-20">
          <mxGeometry relative="1" as="geometry" />
        </mxCell>
        <mxCell id="5Xv1c-DgIOiUIg8Ju9nj-5" style="edgeStyle=orthogonalEdgeStyle;rounded=0;orthogonalLoop=1;jettySize=auto;html=1;exitX=1;exitY=0.5;exitDx=0;exitDy=0;entryX=0;entryY=0.5;entryDx=0;entryDy=0;" edge="1" parent="1" source="5Xv1c-DgIOiUIg8Ju9nj-10" target="5Xv1c-DgIOiUIg8Ju9nj-21">
          <mxGeometry relative="1" as="geometry" />
        </mxCell>
        <mxCell id="5Xv1c-DgIOiUIg8Ju9nj-6" style="edgeStyle=orthogonalEdgeStyle;rounded=0;orthogonalLoop=1;jettySize=auto;html=1;exitX=1;exitY=0.5;exitDx=0;exitDy=0;entryX=0;entryY=0.5;entryDx=0;entryDy=0;" edge="1" parent="1" source="5Xv1c-DgIOiUIg8Ju9nj-10" target="5Xv1c-DgIOiUIg8Ju9nj-18">
          <mxGeometry relative="1" as="geometry" />
        </mxCell>
        <mxCell id="5Xv1c-DgIOiUIg8Ju9nj-7" value="P17 motivated" style="edgeLabel;html=1;align=center;verticalAlign=middle;resizable=0;points=[];" connectable="0" vertex="1" parent="5Xv1c-DgIOiUIg8Ju9nj-6">
          <mxGeometry x="-0.7216" relative="1" as="geometry">
            <mxPoint x="49" y="126" as="offset" />
          </mxGeometry>
        </mxCell>
        <mxCell id="5Xv1c-DgIOiUIg8Ju9nj-8" style="edgeStyle=orthogonalEdgeStyle;rounded=0;orthogonalLoop=1;jettySize=auto;html=1;exitX=0;exitY=0.5;exitDx=0;exitDy=0;entryX=1;entryY=0.5;entryDx=0;entryDy=0;" edge="1" parent="1" source="5Xv1c-DgIOiUIg8Ju9nj-10" target="5Xv1c-DgIOiUIg8Ju9nj-43">
          <mxGeometry relative="1" as="geometry">
            <Array as="points">
              <mxPoint x="450" y="414" />
              <mxPoint x="450" y="270" />
            </Array>
          </mxGeometry>
        </mxCell>
        <mxCell id="5Xv1c-DgIOiUIg8Ju9nj-9" value="ZP75i_is_&lt;br&gt;context_for" style="edgeLabel;html=1;align=center;verticalAlign=middle;resizable=0;points=[];" connectable="0" vertex="1" parent="5Xv1c-DgIOiUIg8Ju9nj-8">
          <mxGeometry x="0.1466" y="2" relative="1" as="geometry">
            <mxPoint x="14" y="85" as="offset" />
          </mxGeometry>
        </mxCell>
        <mxCell id="5Xv1c-DgIOiUIg8Ju9nj-10" value="CC9 Oeuvre Conception" style="rounded=1;whiteSpace=wrap;html=1;fillColor=#82c3ec" vertex="1" parent="1">
          <mxGeometry x="525" y="384" width="120" height="60" as="geometry" />
        </mxCell>
        <mxCell id="5Xv1c-DgIOiUIg8Ju9nj-11" value="F27 Work Conception" style="rounded=1;whiteSpace=wrap;html=1;fillColor=#82c3ec" vertex="1" parent="1">
          <mxGeometry x="525" y="240" width="120" height="60" as="geometry" />
        </mxCell>
        <mxCell id="5Xv1c-DgIOiUIg8Ju9nj-14" style="edgeStyle=orthogonalEdgeStyle;rounded=0;orthogonalLoop=1;jettySize=auto;html=1;exitX=1;exitY=0.25;exitDx=0;exitDy=0;entryX=0.5;entryY=1;entryDx=0;entryDy=0;" edge="1" parent="1" source="5Xv1c-DgIOiUIg8Ju9nj-18" target="5Xv1c-DgIOiUIg8Ju9nj-28">
          <mxGeometry relative="1" as="geometry" />
        </mxCell>
        <mxCell id="5Xv1c-DgIOiUIg8Ju9nj-15" value="P33 used specific technique" style="edgeLabel;html=1;align=center;verticalAlign=middle;resizable=0;points=[];" connectable="0" vertex="1" parent="5Xv1c-DgIOiUIg8Ju9nj-14">
          <mxGeometry x="-0.3181" y="-1" relative="1" as="geometry">
            <mxPoint as="offset" />
          </mxGeometry>
        </mxCell>
        <mxCell id="5Xv1c-DgIOiUIg8Ju9nj-55" style="edgeStyle=orthogonalEdgeStyle;rounded=0;orthogonalLoop=1;jettySize=auto;html=1;exitX=0.5;exitY=1;exitDx=0;exitDy=0;entryX=0;entryY=0.5;entryDx=0;entryDy=0;" edge="1" parent="1" source="5Xv1c-DgIOiUIg8Ju9nj-18" target="5Xv1c-DgIOiUIg8Ju9nj-54">
          <mxGeometry relative="1" as="geometry" />
        </mxCell>
        <mxCell id="5Xv1c-DgIOiUIg8Ju9nj-56" value="P108 has produced" style="edgeLabel;html=1;align=center;verticalAlign=middle;resizable=0;points=[];" connectable="0" vertex="1" parent="5Xv1c-DgIOiUIg8Ju9nj-55">
          <mxGeometry x="-0.1681" y="-2" relative="1" as="geometry">
            <mxPoint as="offset" />
          </mxGeometry>
        </mxCell>
        <mxCell id="avvZTbbKQrKQ69z2ATkm-4" style="edgeStyle=orthogonalEdgeStyle;rounded=0;orthogonalLoop=1;jettySize=auto;html=1;exitX=1;exitY=0.5;exitDx=0;exitDy=0;entryX=0.5;entryY=0;entryDx=0;entryDy=0;" edge="1" parent="1" source="5Xv1c-DgIOiUIg8Ju9nj-18" target="avvZTbbKQrKQ69z2ATkm-1">
          <mxGeometry relative="1" as="geometry" />
        </mxCell>
        <mxCell id="avvZTbbKQrKQ69z2ATkm-5" value="P94 has created" style="edgeLabel;html=1;align=center;verticalAlign=middle;resizable=0;points=[];" connectable="0" vertex="1" parent="avvZTbbKQrKQ69z2ATkm-4">
          <mxGeometry x="0.0186" y="2" relative="1" as="geometry">
            <mxPoint as="offset" />
          </mxGeometry>
        </mxCell>
        <mxCell id="5Xv1c-DgIOiUIg8Ju9nj-18" value="CC2 Realization" style="rounded=1;whiteSpace=wrap;html=1;fillColor=#82c3ec" vertex="1" parent="1">
          <mxGeometry x="870" y="630" width="120" height="60" as="geometry" />
        </mxCell>
        <mxCell id="5Xv1c-DgIOiUIg8Ju9nj-19" value="CC14 Programme Conception" style="rounded=1;whiteSpace=wrap;html=1;fillColor=#82c3ec" vertex="1" parent="1">
          <mxGeometry x="870" y="384" width="120" height="60" as="geometry" />
        </mxCell>
        <mxCell id="5Xv1c-DgIOiUIg8Ju9nj-20" value="CC15 Design Conception" style="rounded=1;whiteSpace=wrap;html=1;fillColor=#82c3ec" vertex="1" parent="1">
          <mxGeometry x="870" y="470" width="120" height="60" as="geometry" />
        </mxCell>
        <mxCell id="5Xv1c-DgIOiUIg8Ju9nj-21" value="CC16 Realization Planning" style="rounded=1;whiteSpace=wrap;html=1;fillColor=#82c3ec" vertex="1" parent="1">
          <mxGeometry x="870" y="550" width="120" height="60" as="geometry" />
        </mxCell>
        <mxCell id="5Xv1c-DgIOiUIg8Ju9nj-22" value="CC17 Projective Requirements" style="rounded=1;whiteSpace=wrap;html=1;fillColor=#fddc34" vertex="1" parent="1">
          <mxGeometry x="1100" y="384" width="120" height="60" as="geometry" />
        </mxCell>
        <mxCell id="5Xv1c-DgIOiUIg8Ju9nj-23" style="edgeStyle=orthogonalEdgeStyle;rounded=0;orthogonalLoop=1;jettySize=auto;html=1;exitX=1;exitY=0.5;exitDx=0;exitDy=0;" edge="1" parent="1" target="5Xv1c-DgIOiUIg8Ju9nj-22">
          <mxGeometry relative="1" as="geometry">
            <mxPoint x="990" y="414" as="sourcePoint" />
          </mxGeometry>
        </mxCell>
        <mxCell id="5Xv1c-DgIOiUIg8Ju9nj-24" value="R16 iniitiated" style="edgeLabel;html=1;align=center;verticalAlign=middle;resizable=0;points=[];" connectable="0" vertex="1" parent="5Xv1c-DgIOiUIg8Ju9nj-23">
          <mxGeometry x="-0.3171" y="-3" relative="1" as="geometry">
            <mxPoint x="12" y="-3" as="offset" />
          </mxGeometry>
        </mxCell>
        <mxCell id="5Xv1c-DgIOiUIg8Ju9nj-25" value="CC13 Design Concept" style="rounded=1;whiteSpace=wrap;html=1;fillColor=#fddc34" vertex="1" parent="1">
          <mxGeometry x="1100" y="470" width="120" height="60" as="geometry" />
        </mxCell>
        <mxCell id="5Xv1c-DgIOiUIg8Ju9nj-26" style="edgeStyle=orthogonalEdgeStyle;rounded=0;orthogonalLoop=1;jettySize=auto;html=1;exitX=1;exitY=0.5;exitDx=0;exitDy=0;" edge="1" parent="1" target="5Xv1c-DgIOiUIg8Ju9nj-25">
          <mxGeometry relative="1" as="geometry">
            <mxPoint x="990" y="500" as="sourcePoint" />
          </mxGeometry>
        </mxCell>
        <mxCell id="5Xv1c-DgIOiUIg8Ju9nj-27" value="R16 iniitiated" style="edgeLabel;html=1;align=center;verticalAlign=middle;resizable=0;points=[];" connectable="0" vertex="1" parent="5Xv1c-DgIOiUIg8Ju9nj-26">
          <mxGeometry x="-0.3171" y="-3" relative="1" as="geometry">
            <mxPoint x="12" y="-3" as="offset" />
          </mxGeometry>
        </mxCell>
        <mxCell id="5Xv1c-DgIOiUIg8Ju9nj-28" value="CC3 Realization Concept" style="rounded=1;whiteSpace=wrap;html=1;fillColor=#fddc34" vertex="1" parent="1">
          <mxGeometry x="1100" y="550" width="120" height="60" as="geometry" />
        </mxCell>
        <mxCell id="5Xv1c-DgIOiUIg8Ju9nj-29" style="edgeStyle=orthogonalEdgeStyle;rounded=0;orthogonalLoop=1;jettySize=auto;html=1;" edge="1" parent="1" target="5Xv1c-DgIOiUIg8Ju9nj-28">
          <mxGeometry relative="1" as="geometry">
            <mxPoint x="990" y="580" as="sourcePoint" />
          </mxGeometry>
        </mxCell>
        <mxCell id="5Xv1c-DgIOiUIg8Ju9nj-30" value="R16 iniitiated" style="edgeLabel;html=1;align=center;verticalAlign=middle;resizable=0;points=[];" connectable="0" vertex="1" parent="5Xv1c-DgIOiUIg8Ju9nj-29">
          <mxGeometry x="-0.3171" y="-3" relative="1" as="geometry">
            <mxPoint x="12" y="-3" as="offset" />
          </mxGeometry>
        </mxCell>
        <mxCell id="5Xv1c-DgIOiUIg8Ju9nj-31" style="edgeStyle=orthogonalEdgeStyle;rounded=0;orthogonalLoop=1;jettySize=auto;html=1;exitX=1;exitY=0.25;exitDx=0;exitDy=0;entryX=0;entryY=0.5;entryDx=0;entryDy=0;" edge="1" parent="1" source="5Xv1c-DgIOiUIg8Ju9nj-10" target="5Xv1c-DgIOiUIg8Ju9nj-37">
          <mxGeometry relative="1" as="geometry">
            <mxPoint x="760" y="270" as="sourcePoint" />
            <Array as="points">
              <mxPoint x="760" y="399" />
              <mxPoint x="760" y="260" />
            </Array>
          </mxGeometry>
        </mxCell>
        <mxCell id="5Xv1c-DgIOiUIg8Ju9nj-32" value="R16 iniitiated" style="edgeLabel;html=1;align=center;verticalAlign=middle;resizable=0;points=[];" connectable="0" vertex="1" parent="5Xv1c-DgIOiUIg8Ju9nj-31">
          <mxGeometry x="-0.4605" relative="1" as="geometry">
            <mxPoint x="20" as="offset" />
          </mxGeometry>
        </mxCell>
        <mxCell id="5Xv1c-DgIOiUIg8Ju9nj-33" style="edgeStyle=orthogonalEdgeStyle;rounded=0;orthogonalLoop=1;jettySize=auto;html=1;exitX=1;exitY=0.5;exitDx=0;exitDy=0;entryX=1;entryY=0.5;entryDx=0;entryDy=0;" edge="1" parent="1" source="5Xv1c-DgIOiUIg8Ju9nj-37" target="5Xv1c-DgIOiUIg8Ju9nj-22">
          <mxGeometry relative="1" as="geometry">
            <Array as="points">
              <mxPoint x="1290" y="260" />
              <mxPoint x="1290" y="414" />
            </Array>
          </mxGeometry>
        </mxCell>
        <mxCell id="5Xv1c-DgIOiUIg8Ju9nj-34" style="edgeStyle=orthogonalEdgeStyle;rounded=0;orthogonalLoop=1;jettySize=auto;html=1;exitX=1;exitY=0.5;exitDx=0;exitDy=0;entryX=1;entryY=0.5;entryDx=0;entryDy=0;" edge="1" parent="1" source="5Xv1c-DgIOiUIg8Ju9nj-37" target="5Xv1c-DgIOiUIg8Ju9nj-25">
          <mxGeometry relative="1" as="geometry">
            <Array as="points">
              <mxPoint x="1290" y="260" />
              <mxPoint x="1290" y="500" />
            </Array>
          </mxGeometry>
        </mxCell>
        <mxCell id="5Xv1c-DgIOiUIg8Ju9nj-35" style="edgeStyle=orthogonalEdgeStyle;rounded=0;orthogonalLoop=1;jettySize=auto;html=1;exitX=1;exitY=0.5;exitDx=0;exitDy=0;entryX=1;entryY=0.5;entryDx=0;entryDy=0;" edge="1" parent="1" source="5Xv1c-DgIOiUIg8Ju9nj-37" target="5Xv1c-DgIOiUIg8Ju9nj-28">
          <mxGeometry relative="1" as="geometry">
            <Array as="points">
              <mxPoint x="1290" y="260" />
              <mxPoint x="1290" y="580" />
            </Array>
          </mxGeometry>
        </mxCell>
        <mxCell id="5Xv1c-DgIOiUIg8Ju9nj-36" value="R10 has member" style="edgeLabel;html=1;align=center;verticalAlign=middle;resizable=0;points=[];" connectable="0" vertex="1" parent="5Xv1c-DgIOiUIg8Ju9nj-35">
          <mxGeometry x="-0.5387" relative="1" as="geometry">
            <mxPoint as="offset" />
          </mxGeometry>
        </mxCell>
        <mxCell id="5Xv1c-DgIOiUIg8Ju9nj-37" value="CC20 Oeuvre" style="rounded=1;whiteSpace=wrap;html=1;fillColor=#fddc34" vertex="1" parent="1">
          <mxGeometry x="1100" y="230" width="120" height="60" as="geometry" />
        </mxCell>
        <mxCell id="5Xv1c-DgIOiUIg8Ju9nj-38" style="edgeStyle=orthogonalEdgeStyle;rounded=0;orthogonalLoop=1;jettySize=auto;html=1;exitX=0;exitY=0.5;exitDx=0;exitDy=0;entryX=1;entryY=0.5;entryDx=0;entryDy=0;" edge="1" parent="1" source="5Xv1c-DgIOiUIg8Ju9nj-40" target="5Xv1c-DgIOiUIg8Ju9nj-44">
          <mxGeometry relative="1" as="geometry" />
        </mxCell>
        <mxCell id="ntoZQtlhIO2rmr0-Rwf4-4" value="ZP17 has social&lt;br style=&quot;border-color: var(--border-color);&quot;&gt;status subject" style="edgeLabel;html=1;align=center;verticalAlign=middle;resizable=0;points=[];" connectable="0" vertex="1" parent="5Xv1c-DgIOiUIg8Ju9nj-38">
          <mxGeometry x="0.246" y="2" relative="1" as="geometry">
            <mxPoint x="17" y="-2" as="offset" />
          </mxGeometry>
        </mxCell>
        <mxCell id="5Xv1c-DgIOiUIg8Ju9nj-39" style="edgeStyle=orthogonalEdgeStyle;rounded=0;orthogonalLoop=1;jettySize=auto;html=1;exitX=0.5;exitY=1;exitDx=0;exitDy=0;entryX=0.5;entryY=0;entryDx=0;entryDy=0;" edge="1" parent="1" source="5Xv1c-DgIOiUIg8Ju9nj-40" target="5Xv1c-DgIOiUIg8Ju9nj-47">
          <mxGeometry relative="1" as="geometry" />
        </mxCell>
        <mxCell id="ntoZQtlhIO2rmr0-Rwf4-5" value="ZP18 ascribes social status" style="edgeLabel;html=1;align=center;verticalAlign=middle;resizable=0;points=[];" connectable="0" vertex="1" parent="5Xv1c-DgIOiUIg8Ju9nj-39">
          <mxGeometry x="-0.2798" y="2" relative="1" as="geometry">
            <mxPoint as="offset" />
          </mxGeometry>
        </mxCell>
        <mxCell id="riEc5IlbVOeLV_H5L1yk-1" value="ZP76 ascribes social status in relation to" style="edgeStyle=orthogonalEdgeStyle;rounded=0;orthogonalLoop=1;jettySize=auto;html=1;exitX=0.5;exitY=0;exitDx=0;exitDy=0;" edge="1" parent="1" source="5Xv1c-DgIOiUIg8Ju9nj-40" target="5Xv1c-DgIOiUIg8Ju9nj-45">
          <mxGeometry x="-0.4386" relative="1" as="geometry">
            <Array as="points">
              <mxPoint x="330" y="540" />
              <mxPoint x="70" y="540" />
            </Array>
            <mxPoint as="offset" />
          </mxGeometry>
        </mxCell>
        <mxCell id="5Xv1c-DgIOiUIg8Ju9nj-40" value="ZE4 Social Status" style="rounded=1;whiteSpace=wrap;html=1;fillColor=#82c3ec" vertex="1" parent="1">
          <mxGeometry x="270" y="610" width="120" height="60" as="geometry" />
        </mxCell>
        <mxCell id="5Xv1c-DgIOiUIg8Ju9nj-41" style="edgeStyle=orthogonalEdgeStyle;rounded=0;orthogonalLoop=1;jettySize=auto;html=1;exitX=0;exitY=0.5;exitDx=0;exitDy=0;entryX=1;entryY=0.5;entryDx=0;entryDy=0;" edge="1" parent="1" source="5Xv1c-DgIOiUIg8Ju9nj-43" target="5Xv1c-DgIOiUIg8Ju9nj-45">
          <mxGeometry relative="1" as="geometry" />
        </mxCell>
        <mxCell id="ntoZQtlhIO2rmr0-Rwf4-1" value="ZP17 has social &lt;br&gt;status subject" style="edgeLabel;html=1;align=center;verticalAlign=middle;resizable=0;points=[];" connectable="0" vertex="1" parent="5Xv1c-DgIOiUIg8Ju9nj-41">
          <mxGeometry x="0.0603" y="-1" relative="1" as="geometry">
            <mxPoint as="offset" />
          </mxGeometry>
        </mxCell>
        <mxCell id="5Xv1c-DgIOiUIg8Ju9nj-42" style="edgeStyle=orthogonalEdgeStyle;rounded=0;orthogonalLoop=1;jettySize=auto;html=1;exitX=0.5;exitY=1;exitDx=0;exitDy=0;entryX=0.5;entryY=0;entryDx=0;entryDy=0;" edge="1" parent="1" source="5Xv1c-DgIOiUIg8Ju9nj-43" target="5Xv1c-DgIOiUIg8Ju9nj-46">
          <mxGeometry relative="1" as="geometry" />
        </mxCell>
        <mxCell id="ntoZQtlhIO2rmr0-Rwf4-2" value="ZP18 ascribes social status" style="edgeLabel;html=1;align=center;verticalAlign=middle;resizable=0;points=[];" connectable="0" vertex="1" parent="5Xv1c-DgIOiUIg8Ju9nj-42">
          <mxGeometry x="-0.2652" y="-1" relative="1" as="geometry">
            <mxPoint as="offset" />
          </mxGeometry>
        </mxCell>
        <mxCell id="5Xv1c-DgIOiUIg8Ju9nj-43" value="ZE4 Social Status" style="rounded=1;whiteSpace=wrap;html=1;fillColor=#82c3ec" vertex="1" parent="1">
          <mxGeometry x="270" y="240" width="120" height="60" as="geometry" />
        </mxCell>
        <mxCell id="5Xv1c-DgIOiUIg8Ju9nj-44" value="E39_Actor" style="rounded=1;whiteSpace=wrap;html=1;fillColor=#ffbdca" vertex="1" parent="1">
          <mxGeometry x="10" y="610" width="120" height="60" as="geometry" />
        </mxCell>
        <mxCell id="5Xv1c-DgIOiUIg8Ju9nj-45" value="E39_Actor" style="rounded=1;whiteSpace=wrap;html=1;fillColor=#ffbdca" vertex="1" parent="1">
          <mxGeometry x="10" y="240" width="120" height="60" as="geometry" />
        </mxCell>
        <mxCell id="5Xv1c-DgIOiUIg8Ju9nj-46" value="E55_Type" style="rounded=1;whiteSpace=wrap;html=1;fillColor=#fab565" vertex="1" parent="1">
          <mxGeometry x="270" y="373.5" width="120" height="60" as="geometry" />
        </mxCell>
        <mxCell id="5Xv1c-DgIOiUIg8Ju9nj-47" value="E55_Type" style="rounded=1;whiteSpace=wrap;html=1;fillColor=#fab565" vertex="1" parent="1">
          <mxGeometry x="270" y="720" width="120" height="60" as="geometry" />
        </mxCell>
        <mxCell id="5Xv1c-DgIOiUIg8Ju9nj-48" value="Maitrise d&#39;Oeuvre" style="rounded=1;whiteSpace=wrap;html=1;fillColor=#ffffff" vertex="1" parent="1">
          <mxGeometry x="270" y="433.5" width="120" height="60" as="geometry" />
        </mxCell>
        <mxCell id="5Xv1c-DgIOiUIg8Ju9nj-49" value="Maitre d&#39;Ouvrage" style="rounded=1;whiteSpace=wrap;html=1;fillColor=#ffffff" vertex="1" parent="1">
          <mxGeometry x="270" y="780" width="120" height="60" as="geometry" />
        </mxCell>
        <mxCell id="avvZTbbKQrKQ69z2ATkm-2" style="edgeStyle=orthogonalEdgeStyle;rounded=0;orthogonalLoop=1;jettySize=auto;html=1;exitX=1;exitY=0.5;exitDx=0;exitDy=0;" edge="1" parent="1" source="5Xv1c-DgIOiUIg8Ju9nj-54" target="avvZTbbKQrKQ69z2ATkm-1">
          <mxGeometry relative="1" as="geometry" />
        </mxCell>
        <mxCell id="avvZTbbKQrKQ69z2ATkm-3" value="P128 carried" style="edgeLabel;html=1;align=center;verticalAlign=middle;resizable=0;points=[];" connectable="0" vertex="1" parent="avvZTbbKQrKQ69z2ATkm-2">
          <mxGeometry x="-0.4772" y="-1" relative="1" as="geometry">
            <mxPoint x="29" y="-1" as="offset" />
          </mxGeometry>
        </mxCell>
        <mxCell id="5Xv1c-DgIOiUIg8Ju9nj-54" value="E24 Physical Human-Made Thing" style="rounded=1;whiteSpace=wrap;html=1;fillColor=#e1ba9c" vertex="1" parent="1">
          <mxGeometry x="1090" y="730" width="120" height="60" as="geometry" />
        </mxCell>
        <mxCell id="avvZTbbKQrKQ69z2ATkm-1" value="E73 Information&amp;nbsp;&lt;br&gt;Object" style="rounded=1;whiteSpace=wrap;html=1;fillColor=#fddc34" vertex="1" parent="1">
          <mxGeometry x="1330" y="730" width="120" height="60" as="geometry" />
        </mxCell>
      </root>
    </mxGraphModel>
  </diagram>
  <diagram name="Oeuvre Agency" id="ZDoKfMP4O1s4V5duqCb-">
    <mxGraphModel grid="1" page="1" gridSize="10" guides="1" tooltips="1" connect="1" arrows="1" fold="1" pageScale="1" pageWidth="1169" pageHeight="827" math="0" shadow="0">
      <root>
        <mxCell id="EWanyF0bfXmNriQj9Znt-0" />
        <mxCell id="EWanyF0bfXmNriQj9Znt-1" parent="EWanyF0bfXmNriQj9Znt-0" />
        <mxCell id="EWanyF0bfXmNriQj9Znt-2" style="edgeStyle=orthogonalEdgeStyle;rounded=0;orthogonalLoop=1;jettySize=auto;html=1;exitX=0;exitY=0.5;exitDx=0;exitDy=0;entryX=1;entryY=0.5;entryDx=0;entryDy=0;" edge="1" parent="EWanyF0bfXmNriQj9Znt-1" source="EWanyF0bfXmNriQj9Znt-11" target="EWanyF0bfXmNriQj9Znt-41">
          <mxGeometry relative="1" as="geometry">
            <Array as="points">
              <mxPoint x="725" y="230" />
              <mxPoint x="650" y="230" />
              <mxPoint x="650" y="380" />
            </Array>
          </mxGeometry>
        </mxCell>
        <mxCell id="EWanyF0bfXmNriQj9Znt-3" style="edgeStyle=orthogonalEdgeStyle;rounded=0;orthogonalLoop=1;jettySize=auto;html=1;exitX=0.5;exitY=0;exitDx=0;exitDy=0;entryX=0.5;entryY=1;entryDx=0;entryDy=0;strokeWidth=3;" edge="1" parent="EWanyF0bfXmNriQj9Znt-1" source="EWanyF0bfXmNriQj9Znt-11" target="EWanyF0bfXmNriQj9Znt-12">
          <mxGeometry relative="1" as="geometry" />
        </mxCell>
        <mxCell id="EWanyF0bfXmNriQj9Znt-9" style="edgeStyle=orthogonalEdgeStyle;rounded=0;orthogonalLoop=1;jettySize=auto;html=1;exitX=0;exitY=0.5;exitDx=0;exitDy=0;entryX=1;entryY=0.5;entryDx=0;entryDy=0;" edge="1" parent="EWanyF0bfXmNriQj9Znt-1" source="EWanyF0bfXmNriQj9Znt-11" target="EWanyF0bfXmNriQj9Znt-46">
          <mxGeometry relative="1" as="geometry">
            <Array as="points">
              <mxPoint x="725" y="230" />
              <mxPoint x="650" y="230" />
              <mxPoint x="650" y="90" />
            </Array>
          </mxGeometry>
        </mxCell>
        <mxCell id="EWanyF0bfXmNriQj9Znt-10" value="ZP75i is&amp;nbsp;&lt;br&gt;context for" style="edgeLabel;html=1;align=center;verticalAlign=middle;resizable=0;points=[];" vertex="1" connectable="0" parent="EWanyF0bfXmNriQj9Znt-9">
          <mxGeometry x="0.1466" y="2" relative="1" as="geometry">
            <mxPoint x="14" y="85" as="offset" />
          </mxGeometry>
        </mxCell>
        <mxCell id="EWanyF0bfXmNriQj9Znt-11" value="CC9 Oeuvre Conception" style="rounded=1;whiteSpace=wrap;html=1;fillColor=#82c3ec" vertex="1" parent="EWanyF0bfXmNriQj9Znt-1">
          <mxGeometry x="725" y="204" width="120" height="60" as="geometry" />
        </mxCell>
        <mxCell id="EWanyF0bfXmNriQj9Znt-12" value="F27 Work Conception" style="rounded=1;whiteSpace=wrap;html=1;fillColor=#82c3ec" vertex="1" parent="EWanyF0bfXmNriQj9Znt-1">
          <mxGeometry x="725" y="60" width="120" height="60" as="geometry" />
        </mxCell>
        <mxCell id="EWanyF0bfXmNriQj9Znt-37" style="edgeStyle=orthogonalEdgeStyle;rounded=0;orthogonalLoop=1;jettySize=auto;html=1;exitX=0;exitY=0.5;exitDx=0;exitDy=0;entryX=1;entryY=0.5;entryDx=0;entryDy=0;" edge="1" parent="EWanyF0bfXmNriQj9Znt-1" source="EWanyF0bfXmNriQj9Znt-41" target="EWanyF0bfXmNriQj9Znt-47">
          <mxGeometry relative="1" as="geometry" />
        </mxCell>
        <mxCell id="EWanyF0bfXmNriQj9Znt-38" value="ZP17 has social&lt;br style=&quot;border-color: var(--border-color);&quot;&gt;status subject" style="edgeLabel;html=1;align=center;verticalAlign=middle;resizable=0;points=[];" vertex="1" connectable="0" parent="EWanyF0bfXmNriQj9Znt-37">
          <mxGeometry x="0.246" y="2" relative="1" as="geometry">
            <mxPoint x="17" y="-2" as="offset" />
          </mxGeometry>
        </mxCell>
        <mxCell id="EWanyF0bfXmNriQj9Znt-39" style="edgeStyle=orthogonalEdgeStyle;rounded=0;orthogonalLoop=1;jettySize=auto;html=1;exitX=0.5;exitY=1;exitDx=0;exitDy=0;entryX=0.5;entryY=0;entryDx=0;entryDy=0;" edge="1" parent="EWanyF0bfXmNriQj9Znt-1" source="EWanyF0bfXmNriQj9Znt-41" target="EWanyF0bfXmNriQj9Znt-50">
          <mxGeometry relative="1" as="geometry" />
        </mxCell>
        <mxCell id="EWanyF0bfXmNriQj9Znt-40" value="ZP18 ascribes social status" style="edgeLabel;html=1;align=center;verticalAlign=middle;resizable=0;points=[];" vertex="1" connectable="0" parent="EWanyF0bfXmNriQj9Znt-39">
          <mxGeometry x="-0.2798" y="2" relative="1" as="geometry">
            <mxPoint as="offset" />
          </mxGeometry>
        </mxCell>
        <mxCell id="IYYDDtF6vvV8hit8Ih3d-0" style="edgeStyle=orthogonalEdgeStyle;rounded=0;orthogonalLoop=1;jettySize=auto;html=1;exitX=0.5;exitY=0;exitDx=0;exitDy=0;" edge="1" parent="EWanyF0bfXmNriQj9Znt-1" source="EWanyF0bfXmNriQj9Znt-41" target="EWanyF0bfXmNriQj9Znt-48">
          <mxGeometry relative="1" as="geometry">
            <Array as="points">
              <mxPoint x="530" y="330" />
              <mxPoint x="270" y="330" />
            </Array>
          </mxGeometry>
        </mxCell>
        <mxCell id="XMJT1AGZQwGWVtQ8fC71-0" value="ZP76 ascribes social status in relation to" style="edgeLabel;html=1;align=center;verticalAlign=middle;resizable=0;points=[];" connectable="0" vertex="1" parent="IYYDDtF6vvV8hit8Ih3d-0">
          <mxGeometry x="-0.2182" relative="1" as="geometry">
            <mxPoint as="offset" />
          </mxGeometry>
        </mxCell>
        <mxCell id="EWanyF0bfXmNriQj9Znt-41" value="ZE4 Social Status" style="rounded=1;whiteSpace=wrap;html=1;fillColor=#82c3ec" vertex="1" parent="EWanyF0bfXmNriQj9Znt-1">
          <mxGeometry x="470" y="350" width="120" height="60" as="geometry" />
        </mxCell>
        <mxCell id="EWanyF0bfXmNriQj9Znt-42" style="edgeStyle=orthogonalEdgeStyle;rounded=0;orthogonalLoop=1;jettySize=auto;html=1;exitX=0;exitY=0.5;exitDx=0;exitDy=0;entryX=1;entryY=0.5;entryDx=0;entryDy=0;" edge="1" parent="EWanyF0bfXmNriQj9Znt-1" source="EWanyF0bfXmNriQj9Znt-46" target="EWanyF0bfXmNriQj9Znt-48">
          <mxGeometry relative="1" as="geometry" />
        </mxCell>
        <mxCell id="EWanyF0bfXmNriQj9Znt-43" value="ZP17 has social &lt;br&gt;status subject" style="edgeLabel;html=1;align=center;verticalAlign=middle;resizable=0;points=[];" vertex="1" connectable="0" parent="EWanyF0bfXmNriQj9Znt-42">
          <mxGeometry x="0.0603" y="-1" relative="1" as="geometry">
            <mxPoint as="offset" />
          </mxGeometry>
        </mxCell>
        <mxCell id="EWanyF0bfXmNriQj9Znt-44" style="edgeStyle=orthogonalEdgeStyle;rounded=0;orthogonalLoop=1;jettySize=auto;html=1;exitX=0.5;exitY=1;exitDx=0;exitDy=0;entryX=0.5;entryY=0;entryDx=0;entryDy=0;" edge="1" parent="EWanyF0bfXmNriQj9Znt-1" source="EWanyF0bfXmNriQj9Znt-46" target="EWanyF0bfXmNriQj9Znt-49">
          <mxGeometry relative="1" as="geometry" />
        </mxCell>
        <mxCell id="EWanyF0bfXmNriQj9Znt-45" value="ZP18 ascribes social status" style="edgeLabel;html=1;align=center;verticalAlign=middle;resizable=0;points=[];" vertex="1" connectable="0" parent="EWanyF0bfXmNriQj9Znt-44">
          <mxGeometry x="-0.2652" y="-1" relative="1" as="geometry">
            <mxPoint as="offset" />
          </mxGeometry>
        </mxCell>
        <mxCell id="EWanyF0bfXmNriQj9Znt-46" value="ZE4 Social Status" style="rounded=1;whiteSpace=wrap;html=1;fillColor=#82c3ec" vertex="1" parent="EWanyF0bfXmNriQj9Znt-1">
          <mxGeometry x="470" y="60" width="120" height="60" as="geometry" />
        </mxCell>
        <mxCell id="EWanyF0bfXmNriQj9Znt-47" value="E39 Actor" style="rounded=1;whiteSpace=wrap;html=1;fillColor=#ffbdca" vertex="1" parent="EWanyF0bfXmNriQj9Znt-1">
          <mxGeometry x="210" y="350" width="120" height="60" as="geometry" />
        </mxCell>
        <mxCell id="EWanyF0bfXmNriQj9Znt-48" value="E39 Actor" style="rounded=1;whiteSpace=wrap;html=1;fillColor=#ffbdca" vertex="1" parent="EWanyF0bfXmNriQj9Znt-1">
          <mxGeometry x="210" y="60" width="120" height="60" as="geometry" />
        </mxCell>
        <mxCell id="EWanyF0bfXmNriQj9Znt-49" value="E55 Type" style="rounded=1;whiteSpace=wrap;html=1;fillColor=#fab565" vertex="1" parent="EWanyF0bfXmNriQj9Znt-1">
          <mxGeometry x="470" y="193.5" width="120" height="60" as="geometry" />
        </mxCell>
        <mxCell id="EWanyF0bfXmNriQj9Znt-50" value="E55 Type" style="rounded=1;whiteSpace=wrap;html=1;fillColor=#fab565" vertex="1" parent="EWanyF0bfXmNriQj9Znt-1">
          <mxGeometry x="470" y="460" width="120" height="60" as="geometry" />
        </mxCell>
        <mxCell id="EWanyF0bfXmNriQj9Znt-51" value="Maitrise d&#39;Oeuvre" style="rounded=1;whiteSpace=wrap;html=1;fillColor=#ffffff" vertex="1" parent="EWanyF0bfXmNriQj9Znt-1">
          <mxGeometry x="470" y="253.5" width="120" height="60" as="geometry" />
        </mxCell>
        <mxCell id="EWanyF0bfXmNriQj9Znt-52" value="Maitre d&#39;Ouvrage" style="rounded=1;whiteSpace=wrap;html=1;fillColor=#ffffff" vertex="1" parent="EWanyF0bfXmNriQj9Znt-1">
          <mxGeometry x="470" y="520" width="120" height="60" as="geometry" />
        </mxCell>
      </root>
    </mxGraphModel>
  </diagram>
  <diagram name="Oeuvre Parthood" id="EMSFWmZVM7sOApC6Xjqt">
    <mxGraphModel grid="1" page="1" gridSize="10" guides="1" tooltips="1" connect="1" arrows="1" fold="1" pageScale="1" pageWidth="1169" pageHeight="827" math="0" shadow="0">
      <root>
        <mxCell id="zBfXY5N2MaNH6byXoQL3-0" />
        <mxCell id="zBfXY5N2MaNH6byXoQL3-1" parent="zBfXY5N2MaNH6byXoQL3-0" />
        <mxCell id="zBfXY5N2MaNH6byXoQL3-3" style="edgeStyle=orthogonalEdgeStyle;rounded=0;orthogonalLoop=1;jettySize=auto;html=1;exitX=0.5;exitY=0;exitDx=0;exitDy=0;entryX=0.5;entryY=1;entryDx=0;entryDy=0;strokeWidth=3;" edge="1" parent="zBfXY5N2MaNH6byXoQL3-1" source="zBfXY5N2MaNH6byXoQL3-11" target="zBfXY5N2MaNH6byXoQL3-12">
          <mxGeometry relative="1" as="geometry" />
        </mxCell>
        <mxCell id="zBfXY5N2MaNH6byXoQL3-4" style="edgeStyle=orthogonalEdgeStyle;rounded=0;orthogonalLoop=1;jettySize=auto;html=1;exitX=1;exitY=0.5;exitDx=0;exitDy=0;" edge="1" parent="zBfXY5N2MaNH6byXoQL3-1" source="zBfXY5N2MaNH6byXoQL3-11" target="zBfXY5N2MaNH6byXoQL3-18">
          <mxGeometry relative="1" as="geometry" />
        </mxCell>
        <mxCell id="zBfXY5N2MaNH6byXoQL3-5" style="edgeStyle=orthogonalEdgeStyle;rounded=0;orthogonalLoop=1;jettySize=auto;html=1;exitX=1;exitY=0.5;exitDx=0;exitDy=0;entryX=0;entryY=0.5;entryDx=0;entryDy=0;" edge="1" parent="zBfXY5N2MaNH6byXoQL3-1" source="zBfXY5N2MaNH6byXoQL3-11" target="zBfXY5N2MaNH6byXoQL3-19">
          <mxGeometry relative="1" as="geometry" />
        </mxCell>
        <mxCell id="zBfXY5N2MaNH6byXoQL3-6" style="edgeStyle=orthogonalEdgeStyle;rounded=0;orthogonalLoop=1;jettySize=auto;html=1;exitX=1;exitY=0.5;exitDx=0;exitDy=0;entryX=0;entryY=0.5;entryDx=0;entryDy=0;" edge="1" parent="zBfXY5N2MaNH6byXoQL3-1" source="zBfXY5N2MaNH6byXoQL3-11" target="zBfXY5N2MaNH6byXoQL3-20">
          <mxGeometry relative="1" as="geometry" />
        </mxCell>
        <mxCell id="zBfXY5N2MaNH6byXoQL3-7" style="edgeStyle=orthogonalEdgeStyle;rounded=0;orthogonalLoop=1;jettySize=auto;html=1;exitX=1;exitY=0.5;exitDx=0;exitDy=0;entryX=0;entryY=0.5;entryDx=0;entryDy=0;" edge="1" parent="zBfXY5N2MaNH6byXoQL3-1" source="zBfXY5N2MaNH6byXoQL3-11" target="zBfXY5N2MaNH6byXoQL3-17">
          <mxGeometry relative="1" as="geometry" />
        </mxCell>
        <mxCell id="zBfXY5N2MaNH6byXoQL3-8" value="P17 motivated" style="edgeLabel;html=1;align=center;verticalAlign=middle;resizable=0;points=[];" connectable="0" vertex="1" parent="zBfXY5N2MaNH6byXoQL3-7">
          <mxGeometry x="-0.7216" relative="1" as="geometry">
            <mxPoint x="49" y="126" as="offset" />
          </mxGeometry>
        </mxCell>
        <mxCell id="zBfXY5N2MaNH6byXoQL3-11" value="CC9 Oeuvre Conception" style="rounded=1;whiteSpace=wrap;html=1;fillColor=#82c3ec" vertex="1" parent="zBfXY5N2MaNH6byXoQL3-1">
          <mxGeometry x="150" y="274" width="120" height="60" as="geometry" />
        </mxCell>
        <mxCell id="zBfXY5N2MaNH6byXoQL3-12" value="F27 Work Conception" style="rounded=1;whiteSpace=wrap;html=1;fillColor=#82c3ec" vertex="1" parent="zBfXY5N2MaNH6byXoQL3-1">
          <mxGeometry x="150" y="130" width="120" height="60" as="geometry" />
        </mxCell>
        <mxCell id="zBfXY5N2MaNH6byXoQL3-13" style="edgeStyle=orthogonalEdgeStyle;rounded=0;orthogonalLoop=1;jettySize=auto;html=1;exitX=1;exitY=0.25;exitDx=0;exitDy=0;entryX=0.5;entryY=1;entryDx=0;entryDy=0;" edge="1" parent="zBfXY5N2MaNH6byXoQL3-1" source="zBfXY5N2MaNH6byXoQL3-17" target="zBfXY5N2MaNH6byXoQL3-27">
          <mxGeometry relative="1" as="geometry" />
        </mxCell>
        <mxCell id="zBfXY5N2MaNH6byXoQL3-14" value="P33 used specific technique" style="edgeLabel;html=1;align=center;verticalAlign=middle;resizable=0;points=[];" vertex="1" connectable="0" parent="zBfXY5N2MaNH6byXoQL3-13">
          <mxGeometry x="-0.3181" y="-1" relative="1" as="geometry">
            <mxPoint as="offset" />
          </mxGeometry>
        </mxCell>
        <mxCell id="zBfXY5N2MaNH6byXoQL3-15" style="edgeStyle=orthogonalEdgeStyle;rounded=0;orthogonalLoop=1;jettySize=auto;html=1;exitX=0.5;exitY=1;exitDx=0;exitDy=0;entryX=0;entryY=0.5;entryDx=0;entryDy=0;" edge="1" parent="zBfXY5N2MaNH6byXoQL3-1" source="zBfXY5N2MaNH6byXoQL3-17" target="zBfXY5N2MaNH6byXoQL3-49">
          <mxGeometry relative="1" as="geometry" />
        </mxCell>
        <mxCell id="zBfXY5N2MaNH6byXoQL3-16" value="P108 has produced" style="edgeLabel;html=1;align=center;verticalAlign=middle;resizable=0;points=[];" vertex="1" connectable="0" parent="zBfXY5N2MaNH6byXoQL3-15">
          <mxGeometry x="-0.1681" y="-2" relative="1" as="geometry">
            <mxPoint as="offset" />
          </mxGeometry>
        </mxCell>
        <mxCell id="zBfXY5N2MaNH6byXoQL3-17" value="CC2 Realization" style="rounded=1;whiteSpace=wrap;html=1;fillColor=#82c3ec" vertex="1" parent="zBfXY5N2MaNH6byXoQL3-1">
          <mxGeometry x="495" y="520" width="120" height="60" as="geometry" />
        </mxCell>
        <mxCell id="zBfXY5N2MaNH6byXoQL3-18" value="CC14 Programme Conception" style="rounded=1;whiteSpace=wrap;html=1;fillColor=#82c3ec" vertex="1" parent="zBfXY5N2MaNH6byXoQL3-1">
          <mxGeometry x="495" y="274" width="120" height="60" as="geometry" />
        </mxCell>
        <mxCell id="zBfXY5N2MaNH6byXoQL3-19" value="CC15 Design Conception" style="rounded=1;whiteSpace=wrap;html=1;fillColor=#82c3ec" vertex="1" parent="zBfXY5N2MaNH6byXoQL3-1">
          <mxGeometry x="495" y="360" width="120" height="60" as="geometry" />
        </mxCell>
        <mxCell id="zBfXY5N2MaNH6byXoQL3-20" value="CC16 Realization Planning" style="rounded=1;whiteSpace=wrap;html=1;fillColor=#82c3ec" vertex="1" parent="zBfXY5N2MaNH6byXoQL3-1">
          <mxGeometry x="495" y="440" width="120" height="60" as="geometry" />
        </mxCell>
        <mxCell id="zBfXY5N2MaNH6byXoQL3-21" value="CC17 Projective Requirements" style="rounded=1;whiteSpace=wrap;html=1;fillColor=#fddc34" vertex="1" parent="zBfXY5N2MaNH6byXoQL3-1">
          <mxGeometry x="725" y="274" width="120" height="60" as="geometry" />
        </mxCell>
        <mxCell id="zBfXY5N2MaNH6byXoQL3-22" style="edgeStyle=orthogonalEdgeStyle;rounded=0;orthogonalLoop=1;jettySize=auto;html=1;exitX=1;exitY=0.5;exitDx=0;exitDy=0;" edge="1" parent="zBfXY5N2MaNH6byXoQL3-1" target="zBfXY5N2MaNH6byXoQL3-21">
          <mxGeometry relative="1" as="geometry">
            <mxPoint x="615" y="304" as="sourcePoint" />
          </mxGeometry>
        </mxCell>
        <mxCell id="zBfXY5N2MaNH6byXoQL3-23" value="R16 iniitiated" style="edgeLabel;html=1;align=center;verticalAlign=middle;resizable=0;points=[];" connectable="0" vertex="1" parent="zBfXY5N2MaNH6byXoQL3-22">
          <mxGeometry x="-0.3171" y="-3" relative="1" as="geometry">
            <mxPoint x="12" y="-3" as="offset" />
          </mxGeometry>
        </mxCell>
        <mxCell id="zBfXY5N2MaNH6byXoQL3-24" value="CC13 Design Concept" style="rounded=1;whiteSpace=wrap;html=1;fillColor=#fddc34" vertex="1" parent="zBfXY5N2MaNH6byXoQL3-1">
          <mxGeometry x="725" y="360" width="120" height="60" as="geometry" />
        </mxCell>
        <mxCell id="zBfXY5N2MaNH6byXoQL3-25" style="edgeStyle=orthogonalEdgeStyle;rounded=0;orthogonalLoop=1;jettySize=auto;html=1;exitX=1;exitY=0.5;exitDx=0;exitDy=0;" edge="1" parent="zBfXY5N2MaNH6byXoQL3-1" target="zBfXY5N2MaNH6byXoQL3-24">
          <mxGeometry relative="1" as="geometry">
            <mxPoint x="615" y="390" as="sourcePoint" />
          </mxGeometry>
        </mxCell>
        <mxCell id="zBfXY5N2MaNH6byXoQL3-26" value="R16 iniitiated" style="edgeLabel;html=1;align=center;verticalAlign=middle;resizable=0;points=[];" connectable="0" vertex="1" parent="zBfXY5N2MaNH6byXoQL3-25">
          <mxGeometry x="-0.3171" y="-3" relative="1" as="geometry">
            <mxPoint x="12" y="-3" as="offset" />
          </mxGeometry>
        </mxCell>
        <mxCell id="zBfXY5N2MaNH6byXoQL3-27" value="CC3 Realization Concept" style="rounded=1;whiteSpace=wrap;html=1;fillColor=#fddc34" vertex="1" parent="zBfXY5N2MaNH6byXoQL3-1">
          <mxGeometry x="725" y="440" width="120" height="60" as="geometry" />
        </mxCell>
        <mxCell id="zBfXY5N2MaNH6byXoQL3-28" style="edgeStyle=orthogonalEdgeStyle;rounded=0;orthogonalLoop=1;jettySize=auto;html=1;" edge="1" parent="zBfXY5N2MaNH6byXoQL3-1" target="zBfXY5N2MaNH6byXoQL3-27">
          <mxGeometry relative="1" as="geometry">
            <mxPoint x="615" y="470" as="sourcePoint" />
          </mxGeometry>
        </mxCell>
        <mxCell id="zBfXY5N2MaNH6byXoQL3-29" value="R16 iniitiated" style="edgeLabel;html=1;align=center;verticalAlign=middle;resizable=0;points=[];" connectable="0" vertex="1" parent="zBfXY5N2MaNH6byXoQL3-28">
          <mxGeometry x="-0.3171" y="-3" relative="1" as="geometry">
            <mxPoint x="12" y="-3" as="offset" />
          </mxGeometry>
        </mxCell>
        <mxCell id="zBfXY5N2MaNH6byXoQL3-30" style="edgeStyle=orthogonalEdgeStyle;rounded=0;orthogonalLoop=1;jettySize=auto;html=1;exitX=1;exitY=0.25;exitDx=0;exitDy=0;entryX=0;entryY=0.5;entryDx=0;entryDy=0;" edge="1" parent="zBfXY5N2MaNH6byXoQL3-1" source="zBfXY5N2MaNH6byXoQL3-11" target="zBfXY5N2MaNH6byXoQL3-36">
          <mxGeometry relative="1" as="geometry">
            <mxPoint x="385" y="160" as="sourcePoint" />
            <Array as="points">
              <mxPoint x="385" y="289" />
              <mxPoint x="385" y="150" />
            </Array>
          </mxGeometry>
        </mxCell>
        <mxCell id="zBfXY5N2MaNH6byXoQL3-31" value="R16 iniitiated" style="edgeLabel;html=1;align=center;verticalAlign=middle;resizable=0;points=[];" vertex="1" connectable="0" parent="zBfXY5N2MaNH6byXoQL3-30">
          <mxGeometry x="-0.4605" relative="1" as="geometry">
            <mxPoint x="20" as="offset" />
          </mxGeometry>
        </mxCell>
        <mxCell id="zBfXY5N2MaNH6byXoQL3-32" style="edgeStyle=orthogonalEdgeStyle;rounded=0;orthogonalLoop=1;jettySize=auto;html=1;exitX=1;exitY=0.5;exitDx=0;exitDy=0;entryX=1;entryY=0.5;entryDx=0;entryDy=0;" edge="1" parent="zBfXY5N2MaNH6byXoQL3-1" source="zBfXY5N2MaNH6byXoQL3-36" target="zBfXY5N2MaNH6byXoQL3-21">
          <mxGeometry relative="1" as="geometry">
            <Array as="points">
              <mxPoint x="915" y="150" />
              <mxPoint x="915" y="304" />
            </Array>
          </mxGeometry>
        </mxCell>
        <mxCell id="zBfXY5N2MaNH6byXoQL3-33" style="edgeStyle=orthogonalEdgeStyle;rounded=0;orthogonalLoop=1;jettySize=auto;html=1;exitX=1;exitY=0.5;exitDx=0;exitDy=0;entryX=1;entryY=0.5;entryDx=0;entryDy=0;" edge="1" parent="zBfXY5N2MaNH6byXoQL3-1" source="zBfXY5N2MaNH6byXoQL3-36" target="zBfXY5N2MaNH6byXoQL3-24">
          <mxGeometry relative="1" as="geometry">
            <Array as="points">
              <mxPoint x="915" y="150" />
              <mxPoint x="915" y="390" />
            </Array>
          </mxGeometry>
        </mxCell>
        <mxCell id="zBfXY5N2MaNH6byXoQL3-34" style="edgeStyle=orthogonalEdgeStyle;rounded=0;orthogonalLoop=1;jettySize=auto;html=1;exitX=1;exitY=0.5;exitDx=0;exitDy=0;entryX=1;entryY=0.5;entryDx=0;entryDy=0;" edge="1" parent="zBfXY5N2MaNH6byXoQL3-1" source="zBfXY5N2MaNH6byXoQL3-36" target="zBfXY5N2MaNH6byXoQL3-27">
          <mxGeometry relative="1" as="geometry">
            <Array as="points">
              <mxPoint x="915" y="150" />
              <mxPoint x="915" y="470" />
            </Array>
          </mxGeometry>
        </mxCell>
        <mxCell id="zBfXY5N2MaNH6byXoQL3-35" value="R10 has member" style="edgeLabel;html=1;align=center;verticalAlign=middle;resizable=0;points=[];" vertex="1" connectable="0" parent="zBfXY5N2MaNH6byXoQL3-34">
          <mxGeometry x="-0.5387" relative="1" as="geometry">
            <mxPoint as="offset" />
          </mxGeometry>
        </mxCell>
        <mxCell id="zBfXY5N2MaNH6byXoQL3-36" value="CC20 Oeuvre" style="rounded=1;whiteSpace=wrap;html=1;fillColor=#fddc34" vertex="1" parent="zBfXY5N2MaNH6byXoQL3-1">
          <mxGeometry x="725" y="120" width="120" height="60" as="geometry" />
        </mxCell>
        <mxCell id="zBfXY5N2MaNH6byXoQL3-49" value="E24 Physical Human-Made Thing" style="rounded=1;whiteSpace=wrap;html=1;fillColor=#e1ba9c" vertex="1" parent="zBfXY5N2MaNH6byXoQL3-1">
          <mxGeometry x="715" y="620" width="120" height="60" as="geometry" />
        </mxCell>
      </root>
    </mxGraphModel>
  </diagram>
  <diagram id="h2xiukQAprq1CZSCnJC1" name="Formulations">
    <mxGraphModel grid="1" page="1" gridSize="10" guides="1" tooltips="1" connect="1" arrows="1" fold="1" pageScale="1" pageWidth="1169" pageHeight="827" math="0" shadow="0">
      <root>
        <mxCell id="0" />
        <mxCell id="1" parent="0" />
        <mxCell id="FC1qo0xxTAzBq0u8kaP_-1" style="edgeStyle=orthogonalEdgeStyle;rounded=0;orthogonalLoop=1;jettySize=auto;html=1;exitX=0.5;exitY=0;exitDx=0;exitDy=0;entryX=0.5;entryY=1;entryDx=0;entryDy=0;endArrow=block;endFill=0;strokeWidth=3;" edge="1" parent="1" source="FC1qo0xxTAzBq0u8kaP_-2" target="FC1qo0xxTAzBq0u8kaP_-5">
          <mxGeometry relative="1" as="geometry" />
        </mxCell>
        <mxCell id="FC1qo0xxTAzBq0u8kaP_-2" value="CC1 Model" style="rounded=1;whiteSpace=wrap;html=1;fillColor=#fddc34" vertex="1" parent="1">
          <mxGeometry x="525" y="504" width="120" height="60" as="geometry" />
        </mxCell>
        <mxCell id="FC1qo0xxTAzBq0u8kaP_-3" style="edgeStyle=orthogonalEdgeStyle;rounded=0;orthogonalLoop=1;jettySize=auto;html=1;exitX=0.5;exitY=0;exitDx=0;exitDy=0;endArrow=block;endFill=0;strokeWidth=3;" edge="1" parent="1" source="FC1qo0xxTAzBq0u8kaP_-5" target="FC1qo0xxTAzBq0u8kaP_-9">
          <mxGeometry relative="1" as="geometry" />
        </mxCell>
        <mxCell id="FC1qo0xxTAzBq0u8kaP_-4" style="edgeStyle=orthogonalEdgeStyle;rounded=0;orthogonalLoop=1;jettySize=auto;html=1;exitX=0.5;exitY=0;exitDx=0;exitDy=0;endArrow=block;endFill=0;strokeWidth=3;" edge="1" parent="1" source="FC1qo0xxTAzBq0u8kaP_-5" target="FC1qo0xxTAzBq0u8kaP_-8">
          <mxGeometry relative="1" as="geometry" />
        </mxCell>
        <mxCell id="FC1qo0xxTAzBq0u8kaP_-5" value="CC5 Formulation" style="rounded=1;whiteSpace=wrap;html=1;fillColor=#fddc34" vertex="1" parent="1">
          <mxGeometry x="525" y="374" width="120" height="60" as="geometry" />
        </mxCell>
        <mxCell id="FC1qo0xxTAzBq0u8kaP_-6" style="edgeStyle=orthogonalEdgeStyle;rounded=0;orthogonalLoop=1;jettySize=auto;html=1;exitX=0.5;exitY=0;exitDx=0;exitDy=0;entryX=0.5;entryY=1;entryDx=0;entryDy=0;endArrow=block;endFill=0;strokeWidth=3;" edge="1" parent="1" source="FC1qo0xxTAzBq0u8kaP_-7" target="FC1qo0xxTAzBq0u8kaP_-5">
          <mxGeometry relative="1" as="geometry" />
        </mxCell>
        <mxCell id="FC1qo0xxTAzBq0u8kaP_-7" value="CC6 Programme" style="rounded=1;whiteSpace=wrap;html=1;fillColor=#fddc34" vertex="1" parent="1">
          <mxGeometry x="355" y="504" width="120" height="60" as="geometry" />
        </mxCell>
        <mxCell id="FC1qo0xxTAzBq0u8kaP_-8" value="E29 Design or Procedure" style="rounded=1;whiteSpace=wrap;html=1;fillColor=#fddc34" vertex="1" parent="1">
          <mxGeometry x="695" y="264" width="120" height="60" as="geometry" />
        </mxCell>
        <mxCell id="FC1qo0xxTAzBq0u8kaP_-9" value="F2 Expression" style="rounded=1;whiteSpace=wrap;html=1;fillColor=#fddc34" vertex="1" parent="1">
          <mxGeometry x="355" y="264" width="120" height="60" as="geometry" />
        </mxCell>
        <mxCell id="FC1qo0xxTAzBq0u8kaP_-10" style="edgeStyle=orthogonalEdgeStyle;rounded=0;orthogonalLoop=1;jettySize=auto;html=1;exitX=0.5;exitY=0;exitDx=0;exitDy=0;endArrow=block;endFill=0;strokeWidth=3;" edge="1" parent="1" source="FC1qo0xxTAzBq0u8kaP_-11" target="FC1qo0xxTAzBq0u8kaP_-5">
          <mxGeometry relative="1" as="geometry" />
        </mxCell>
        <mxCell id="FC1qo0xxTAzBq0u8kaP_-11" value="CC4 Realization Plan" style="rounded=1;whiteSpace=wrap;html=1;fillColor=#fddc34" vertex="1" parent="1">
          <mxGeometry x="695" y="504" width="120" height="60" as="geometry" />
        </mxCell>
        <mxCell id="FC1qo0xxTAzBq0u8kaP_-12" style="edgeStyle=orthogonalEdgeStyle;rounded=0;orthogonalLoop=1;jettySize=auto;html=1;exitX=0.5;exitY=0;exitDx=0;exitDy=0;entryX=0.5;entryY=1;entryDx=0;entryDy=0;endArrow=block;endFill=0;strokeWidth=3;" edge="1" parent="1" source="FC1qo0xxTAzBq0u8kaP_-13" target="FC1qo0xxTAzBq0u8kaP_-16">
          <mxGeometry relative="1" as="geometry" />
        </mxCell>
        <mxCell id="FC1qo0xxTAzBq0u8kaP_-13" value="CC12 Event Trigger Template" style="rounded=1;whiteSpace=wrap;html=1;fillColor=#fddc34" vertex="1" parent="1">
          <mxGeometry x="950" y="374" width="120" height="60" as="geometry" />
        </mxCell>
        <mxCell id="FC1qo0xxTAzBq0u8kaP_-14" style="edgeStyle=orthogonalEdgeStyle;rounded=0;orthogonalLoop=1;jettySize=auto;html=1;exitX=1;exitY=0.5;exitDx=0;exitDy=0;entryX=0;entryY=0.5;entryDx=0;entryDy=0;" edge="1" parent="1" source="FC1qo0xxTAzBq0u8kaP_-5" target="FC1qo0xxTAzBq0u8kaP_-13">
          <mxGeometry relative="1" as="geometry">
            <mxPoint x="645" y="404" as="sourcePoint" />
          </mxGeometry>
        </mxCell>
        <mxCell id="FC1qo0xxTAzBq0u8kaP_-15" value="CP4 projects" style="edgeLabel;html=1;align=center;verticalAlign=middle;resizable=0;points=[];" connectable="0" vertex="1" parent="FC1qo0xxTAzBq0u8kaP_-14">
          <mxGeometry x="-0.364" relative="1" as="geometry">
            <mxPoint x="19" as="offset" />
          </mxGeometry>
        </mxCell>
        <mxCell id="FC1qo0xxTAzBq0u8kaP_-16" value="E89 Propositional Object" style="rounded=1;whiteSpace=wrap;html=1;fillColor=#fddc34" vertex="1" parent="1">
          <mxGeometry x="950" y="264" width="120" height="60" as="geometry" />
        </mxCell>
      </root>
    </mxGraphModel>
  </diagram>
  <diagram id="wRHYauymIIUITCiYBXpK" name="Trigger Templates">
    <mxGraphModel grid="1" page="1" gridSize="10" guides="1" tooltips="1" connect="1" arrows="1" fold="1" pageScale="1" pageWidth="1169" pageHeight="827" math="0" shadow="0">
      <root>
        <mxCell id="0" />
        <mxCell id="1" parent="0" />
        <mxCell id="_vYlnjiTs0-Ngbz1HomC-1" style="edgeStyle=orthogonalEdgeStyle;rounded=0;orthogonalLoop=1;jettySize=auto;html=1;exitX=1;exitY=0.5;exitDx=0;exitDy=0;entryX=0;entryY=0.5;entryDx=0;entryDy=0;" edge="1" parent="1" source="_vYlnjiTs0-Ngbz1HomC-23" target="_vYlnjiTs0-Ngbz1HomC-28">
          <mxGeometry relative="1" as="geometry" />
        </mxCell>
        <mxCell id="_vYlnjiTs0-Ngbz1HomC-2" value="CP10 stipulates actor" style="edgeLabel;html=1;align=center;verticalAlign=middle;resizable=0;points=[];" connectable="0" vertex="1" parent="_vYlnjiTs0-Ngbz1HomC-1">
          <mxGeometry x="0.2974" y="1" relative="1" as="geometry">
            <mxPoint x="39" y="1" as="offset" />
          </mxGeometry>
        </mxCell>
        <mxCell id="_vYlnjiTs0-Ngbz1HomC-3" style="edgeStyle=orthogonalEdgeStyle;rounded=0;orthogonalLoop=1;jettySize=auto;html=1;exitX=1;exitY=0.25;exitDx=0;exitDy=0;entryX=0;entryY=0.5;entryDx=0;entryDy=0;" edge="1" parent="1" source="_vYlnjiTs0-Ngbz1HomC-23" target="_vYlnjiTs0-Ngbz1HomC-27">
          <mxGeometry relative="1" as="geometry" />
        </mxCell>
        <mxCell id="_vYlnjiTs0-Ngbz1HomC-4" value="CP9 stipulates time-span" style="edgeLabel;html=1;align=center;verticalAlign=middle;resizable=0;points=[];" connectable="0" vertex="1" parent="_vYlnjiTs0-Ngbz1HomC-3">
          <mxGeometry x="0.4497" y="-1" relative="1" as="geometry">
            <mxPoint x="21" as="offset" />
          </mxGeometry>
        </mxCell>
        <mxCell id="_vYlnjiTs0-Ngbz1HomC-5" style="edgeStyle=orthogonalEdgeStyle;rounded=0;orthogonalLoop=1;jettySize=auto;html=1;exitX=1;exitY=0.75;exitDx=0;exitDy=0;entryX=0;entryY=0.5;entryDx=0;entryDy=0;" edge="1" parent="1" source="_vYlnjiTs0-Ngbz1HomC-23" target="_vYlnjiTs0-Ngbz1HomC-29">
          <mxGeometry relative="1" as="geometry" />
        </mxCell>
        <mxCell id="_vYlnjiTs0-Ngbz1HomC-6" value="CP11 stipulates equipment" style="edgeLabel;html=1;align=center;verticalAlign=middle;resizable=0;points=[];" connectable="0" vertex="1" parent="_vYlnjiTs0-Ngbz1HomC-5">
          <mxGeometry x="0.4833" y="-1" relative="1" as="geometry">
            <mxPoint x="16" y="-1" as="offset" />
          </mxGeometry>
        </mxCell>
        <mxCell id="_vYlnjiTs0-Ngbz1HomC-7" style="edgeStyle=orthogonalEdgeStyle;rounded=0;orthogonalLoop=1;jettySize=auto;html=1;exitX=0.75;exitY=0;exitDx=0;exitDy=0;entryX=0;entryY=0.5;entryDx=0;entryDy=0;" edge="1" parent="1" source="_vYlnjiTs0-Ngbz1HomC-23" target="_vYlnjiTs0-Ngbz1HomC-26">
          <mxGeometry relative="1" as="geometry" />
        </mxCell>
        <mxCell id="_vYlnjiTs0-Ngbz1HomC-8" value="CP8 stipulates place" style="edgeLabel;html=1;align=center;verticalAlign=middle;resizable=0;points=[];" connectable="0" vertex="1" parent="_vYlnjiTs0-Ngbz1HomC-7">
          <mxGeometry x="-0.1327" y="2" relative="1" as="geometry">
            <mxPoint x="25" as="offset" />
          </mxGeometry>
        </mxCell>
        <mxCell id="_vYlnjiTs0-Ngbz1HomC-9" style="edgeStyle=orthogonalEdgeStyle;rounded=0;orthogonalLoop=1;jettySize=auto;html=1;exitX=0.146;exitY=0.014;exitDx=0;exitDy=0;entryX=0;entryY=0.5;entryDx=0;entryDy=0;exitPerimeter=0;" edge="1" parent="1" source="_vYlnjiTs0-Ngbz1HomC-23" target="_vYlnjiTs0-Ngbz1HomC-25">
          <mxGeometry relative="1" as="geometry" />
        </mxCell>
        <mxCell id="_vYlnjiTs0-Ngbz1HomC-10" value="CP6 stipulates event type" style="edgeLabel;html=1;align=center;verticalAlign=middle;resizable=0;points=[];" connectable="0" vertex="1" parent="_vYlnjiTs0-Ngbz1HomC-9">
          <mxGeometry x="-0.021" y="2" relative="1" as="geometry">
            <mxPoint x="116" y="2" as="offset" />
          </mxGeometry>
        </mxCell>
        <mxCell id="_vYlnjiTs0-Ngbz1HomC-11" style="edgeStyle=orthogonalEdgeStyle;rounded=0;orthogonalLoop=1;jettySize=auto;html=1;exitX=0;exitY=0.25;exitDx=0;exitDy=0;entryX=0;entryY=0.5;entryDx=0;entryDy=0;" edge="1" parent="1" source="_vYlnjiTs0-Ngbz1HomC-23" target="_vYlnjiTs0-Ngbz1HomC-24">
          <mxGeometry relative="1" as="geometry" />
        </mxCell>
        <mxCell id="_vYlnjiTs0-Ngbz1HomC-12" value="CP5 stipulates type of object outcome&amp;nbsp;" style="edgeLabel;html=1;align=center;verticalAlign=middle;resizable=0;points=[];" connectable="0" vertex="1" parent="_vYlnjiTs0-Ngbz1HomC-11">
          <mxGeometry x="0.3529" y="2" relative="1" as="geometry">
            <mxPoint x="58" y="2" as="offset" />
          </mxGeometry>
        </mxCell>
        <mxCell id="_vYlnjiTs0-Ngbz1HomC-13" style="edgeStyle=orthogonalEdgeStyle;rounded=0;orthogonalLoop=1;jettySize=auto;html=1;exitX=0.5;exitY=1;exitDx=0;exitDy=0;entryX=0;entryY=0.5;entryDx=0;entryDy=0;" edge="1" parent="1" source="_vYlnjiTs0-Ngbz1HomC-23" target="_vYlnjiTs0-Ngbz1HomC-30">
          <mxGeometry relative="1" as="geometry" />
        </mxCell>
        <mxCell id="_vYlnjiTs0-Ngbz1HomC-14" value="CP13 stipulates budget" style="edgeLabel;html=1;align=center;verticalAlign=middle;resizable=0;points=[];" connectable="0" vertex="1" parent="_vYlnjiTs0-Ngbz1HomC-13">
          <mxGeometry x="-0.1272" y="1" relative="1" as="geometry">
            <mxPoint x="90" y="1" as="offset" />
          </mxGeometry>
        </mxCell>
        <mxCell id="_vYlnjiTs0-Ngbz1HomC-15" style="edgeStyle=orthogonalEdgeStyle;rounded=0;orthogonalLoop=1;jettySize=auto;html=1;exitX=0.079;exitY=0.968;exitDx=0;exitDy=0;entryX=0;entryY=0.5;entryDx=0;entryDy=0;exitPerimeter=0;" edge="1" parent="1" source="_vYlnjiTs0-Ngbz1HomC-23" target="_vYlnjiTs0-Ngbz1HomC-32">
          <mxGeometry relative="1" as="geometry">
            <Array as="points">
              <mxPoint x="540" y="710" />
            </Array>
          </mxGeometry>
        </mxCell>
        <mxCell id="_vYlnjiTs0-Ngbz1HomC-16" value="CP14 stipulates object outcome" style="edgeLabel;html=1;align=center;verticalAlign=middle;resizable=0;points=[];" connectable="0" vertex="1" parent="_vYlnjiTs0-Ngbz1HomC-15">
          <mxGeometry x="0.24" relative="1" as="geometry">
            <mxPoint x="49" as="offset" />
          </mxGeometry>
        </mxCell>
        <mxCell id="_vYlnjiTs0-Ngbz1HomC-17" style="edgeStyle=orthogonalEdgeStyle;rounded=0;orthogonalLoop=1;jettySize=auto;html=1;exitX=0;exitY=0.75;exitDx=0;exitDy=0;entryX=0;entryY=0.5;entryDx=0;entryDy=0;" edge="1" parent="1" source="_vYlnjiTs0-Ngbz1HomC-23" target="_vYlnjiTs0-Ngbz1HomC-31">
          <mxGeometry relative="1" as="geometry" />
        </mxCell>
        <mxCell id="_vYlnjiTs0-Ngbz1HomC-18" value="CP15 stipulates sub-event" style="edgeLabel;html=1;align=center;verticalAlign=middle;resizable=0;points=[];" connectable="0" vertex="1" parent="_vYlnjiTs0-Ngbz1HomC-17">
          <mxGeometry x="0.3924" y="1" relative="1" as="geometry">
            <mxPoint x="25" y="1" as="offset" />
          </mxGeometry>
        </mxCell>
        <mxCell id="_vYlnjiTs0-Ngbz1HomC-19" style="edgeStyle=orthogonalEdgeStyle;rounded=0;orthogonalLoop=1;jettySize=auto;html=1;exitX=0.5;exitY=0;exitDx=0;exitDy=0;entryX=0;entryY=0.5;entryDx=0;entryDy=0;" edge="1" parent="1" source="_vYlnjiTs0-Ngbz1HomC-23" target="_vYlnjiTs0-Ngbz1HomC-33">
          <mxGeometry relative="1" as="geometry" />
        </mxCell>
        <mxCell id="_vYlnjiTs0-Ngbz1HomC-20" value="CP7 stipulates actor type" style="edgeLabel;html=1;align=center;verticalAlign=middle;resizable=0;points=[];" connectable="0" vertex="1" parent="_vYlnjiTs0-Ngbz1HomC-19">
          <mxGeometry x="0.0512" relative="1" as="geometry">
            <mxPoint x="36" as="offset" />
          </mxGeometry>
        </mxCell>
        <mxCell id="_vYlnjiTs0-Ngbz1HomC-21" style="edgeStyle=orthogonalEdgeStyle;rounded=0;orthogonalLoop=1;jettySize=auto;html=1;exitX=0.75;exitY=1;exitDx=0;exitDy=0;entryX=0;entryY=0.5;entryDx=0;entryDy=0;" edge="1" parent="1" source="_vYlnjiTs0-Ngbz1HomC-23" target="_vYlnjiTs0-Ngbz1HomC-34">
          <mxGeometry relative="1" as="geometry" />
        </mxCell>
        <mxCell id="_vYlnjiTs0-Ngbz1HomC-22" value="CP12 stipulates particular method" style="edgeLabel;html=1;align=center;verticalAlign=middle;resizable=0;points=[];" connectable="0" vertex="1" parent="_vYlnjiTs0-Ngbz1HomC-21">
          <mxGeometry x="-0.118" y="-1" relative="1" as="geometry">
            <mxPoint x="52" y="-1" as="offset" />
          </mxGeometry>
        </mxCell>
        <mxCell id="_vYlnjiTs0-Ngbz1HomC-23" value="CC12 Event Trigger Template" style="rounded=1;whiteSpace=wrap;html=1;fillColor=#fddc34" vertex="1" parent="1">
          <mxGeometry x="530" y="394" width="120" height="60" as="geometry" />
        </mxCell>
        <mxCell id="_vYlnjiTs0-Ngbz1HomC-24" value="E55 Type" style="rounded=1;whiteSpace=wrap;html=1;fillColor=#fab565" vertex="1" parent="1">
          <mxGeometry x="990" y="40" width="120" height="60" as="geometry" />
        </mxCell>
        <mxCell id="_vYlnjiTs0-Ngbz1HomC-25" value="E55 Type" style="rounded=1;whiteSpace=wrap;html=1;fillColor=#fab565" vertex="1" parent="1">
          <mxGeometry x="990" y="110" width="120" height="60" as="geometry" />
        </mxCell>
        <mxCell id="_vYlnjiTs0-Ngbz1HomC-26" value="E53 Place" style="rounded=1;whiteSpace=wrap;html=1;fillColor=#94cc7d" vertex="1" parent="1">
          <mxGeometry x="990" y="250" width="120" height="60" as="geometry" />
        </mxCell>
        <mxCell id="_vYlnjiTs0-Ngbz1HomC-27" value="E52 Time-Span" style="rounded=1;whiteSpace=wrap;html=1;fillColor=#86bcc8" vertex="1" parent="1">
          <mxGeometry x="990" y="320" width="120" height="60" as="geometry" />
        </mxCell>
        <mxCell id="_vYlnjiTs0-Ngbz1HomC-28" value="E39 Actor" style="rounded=1;whiteSpace=wrap;html=1;fillColor=#ffbdca" vertex="1" parent="1">
          <mxGeometry x="990" y="394" width="120" height="60" as="geometry" />
        </mxCell>
        <mxCell id="_vYlnjiTs0-Ngbz1HomC-29" value="E18 Physical Thing" style="rounded=1;whiteSpace=wrap;html=1;fillColor=#e1ba9c" vertex="1" parent="1">
          <mxGeometry x="990" y="470" width="120" height="60" as="geometry" />
        </mxCell>
        <mxCell id="_vYlnjiTs0-Ngbz1HomC-30" value="E54 Dimension" style="rounded=1;whiteSpace=wrap;html=1;fillColor=#ffffff" vertex="1" parent="1">
          <mxGeometry x="990" y="610" width="120" height="60" as="geometry" />
        </mxCell>
        <mxCell id="_vYlnjiTs0-Ngbz1HomC-31" value="CC12 Event Trigger Template" style="rounded=1;whiteSpace=wrap;html=1;fillColor=#fddc34" vertex="1" parent="1">
          <mxGeometry x="990" y="750" width="120" height="60" as="geometry" />
        </mxCell>
        <mxCell id="_vYlnjiTs0-Ngbz1HomC-32" value="CC11 Object Trigger Template" style="rounded=1;whiteSpace=wrap;html=1;fillColor=#fddc34" vertex="1" parent="1">
          <mxGeometry x="1060" y="680" width="120" height="60" as="geometry" />
        </mxCell>
        <mxCell id="_vYlnjiTs0-Ngbz1HomC-33" value="E55 Type" style="rounded=1;whiteSpace=wrap;html=1;fillColor=#fab565" vertex="1" parent="1">
          <mxGeometry x="990" y="180" width="120" height="60" as="geometry" />
        </mxCell>
        <mxCell id="_vYlnjiTs0-Ngbz1HomC-34" value="CC12 Event Trigger Template" style="rounded=1;whiteSpace=wrap;html=1;fillColor=#fddc34" vertex="1" parent="1">
          <mxGeometry x="990" y="540" width="120" height="60" as="geometry" />
        </mxCell>
        <mxCell id="_vYlnjiTs0-Ngbz1HomC-35" style="edgeStyle=orthogonalEdgeStyle;rounded=0;orthogonalLoop=1;jettySize=auto;html=1;exitX=1;exitY=0.5;exitDx=0;exitDy=0;" edge="1" parent="1" source="_vYlnjiTs0-Ngbz1HomC-37" target="_vYlnjiTs0-Ngbz1HomC-23">
          <mxGeometry relative="1" as="geometry" />
        </mxCell>
        <mxCell id="_vYlnjiTs0-Ngbz1HomC-36" value="CP4 projects" style="edgeLabel;html=1;align=center;verticalAlign=middle;resizable=0;points=[];" connectable="0" vertex="1" parent="_vYlnjiTs0-Ngbz1HomC-35">
          <mxGeometry x="-0.5199" y="1" relative="1" as="geometry">
            <mxPoint x="30" y="1" as="offset" />
          </mxGeometry>
        </mxCell>
        <mxCell id="_vYlnjiTs0-Ngbz1HomC-37" value="CC5 Formulation" style="rounded=1;whiteSpace=wrap;html=1;fillColor=#fddc34" vertex="1" parent="1">
          <mxGeometry x="200" y="394" width="120" height="60" as="geometry" />
        </mxCell>
        <mxCell id="FK-yrk5bc35EKxnbb64K-3" style="edgeStyle=orthogonalEdgeStyle;rounded=0;orthogonalLoop=1;jettySize=auto;html=1;exitX=1;exitY=0.5;exitDx=0;exitDy=0;" edge="1" parent="1" source="_vYlnjiTs0-Ngbz1HomC-32" target="FK-yrk5bc35EKxnbb64K-17">
          <mxGeometry relative="1" as="geometry">
            <mxPoint x="1188" y="711" as="sourcePoint" />
          </mxGeometry>
        </mxCell>
        <mxCell id="FK-yrk5bc35EKxnbb64K-4" value="CP18 stipulates dimension" style="edgeLabel;html=1;align=center;verticalAlign=middle;resizable=0;points=[];" connectable="0" vertex="1" parent="FK-yrk5bc35EKxnbb64K-3">
          <mxGeometry x="-0.4558" y="-2" relative="1" as="geometry">
            <mxPoint x="45" y="-2" as="offset" />
          </mxGeometry>
        </mxCell>
        <mxCell id="FK-yrk5bc35EKxnbb64K-5" style="edgeStyle=orthogonalEdgeStyle;rounded=0;orthogonalLoop=1;jettySize=auto;html=1;exitX=0.75;exitY=0;exitDx=0;exitDy=0;" edge="1" parent="1" target="FK-yrk5bc35EKxnbb64K-15">
          <mxGeometry relative="1" as="geometry">
            <mxPoint x="1158" y="680" as="sourcePoint" />
            <mxPoint x="1370" y="549" as="targetPoint" />
            <Array as="points">
              <mxPoint x="1158" y="681" />
              <mxPoint x="1160" y="681" />
              <mxPoint x="1160" y="549" />
            </Array>
          </mxGeometry>
        </mxCell>
        <mxCell id="FK-yrk5bc35EKxnbb64K-6" value="CP16 stipulates&amp;nbsp;&lt;br&gt;material" style="edgeLabel;html=1;align=center;verticalAlign=middle;resizable=0;points=[];" connectable="0" vertex="1" parent="FK-yrk5bc35EKxnbb64K-5">
          <mxGeometry x="-0.2179" y="4" relative="1" as="geometry">
            <mxPoint x="123" as="offset" />
          </mxGeometry>
        </mxCell>
        <mxCell id="FK-yrk5bc35EKxnbb64K-7" style="edgeStyle=orthogonalEdgeStyle;rounded=0;orthogonalLoop=1;jettySize=auto;html=1;exitX=1;exitY=0.25;exitDx=0;exitDy=0;entryX=0;entryY=0.5;entryDx=0;entryDy=0;" edge="1" parent="1" source="_vYlnjiTs0-Ngbz1HomC-32" target="FK-yrk5bc35EKxnbb64K-16">
          <mxGeometry relative="1" as="geometry">
            <mxPoint x="1188" y="696" as="sourcePoint" />
          </mxGeometry>
        </mxCell>
        <mxCell id="FK-yrk5bc35EKxnbb64K-8" value="CP17 stipulates&lt;br&gt;site" style="edgeLabel;html=1;align=center;verticalAlign=middle;resizable=0;points=[];" connectable="0" vertex="1" parent="FK-yrk5bc35EKxnbb64K-7">
          <mxGeometry x="0.2532" y="2" relative="1" as="geometry">
            <mxPoint as="offset" />
          </mxGeometry>
        </mxCell>
        <mxCell id="FK-yrk5bc35EKxnbb64K-9" style="edgeStyle=orthogonalEdgeStyle;rounded=0;orthogonalLoop=1;jettySize=auto;html=1;exitX=0.75;exitY=1;exitDx=0;exitDy=0;entryX=0;entryY=0.5;entryDx=0;entryDy=0;" edge="1" parent="1" target="FK-yrk5bc35EKxnbb64K-18">
          <mxGeometry relative="1" as="geometry">
            <mxPoint x="1158" y="741" as="sourcePoint" />
            <Array as="points">
              <mxPoint x="1158" y="877" />
            </Array>
          </mxGeometry>
        </mxCell>
        <mxCell id="FK-yrk5bc35EKxnbb64K-10" value="CP20 stipulates&lt;br&gt;reference" style="edgeLabel;html=1;align=center;verticalAlign=middle;resizable=0;points=[];" connectable="0" vertex="1" parent="FK-yrk5bc35EKxnbb64K-9">
          <mxGeometry x="0.4036" relative="1" as="geometry">
            <mxPoint x="15" as="offset" />
          </mxGeometry>
        </mxCell>
        <mxCell id="FK-yrk5bc35EKxnbb64K-11" style="edgeStyle=orthogonalEdgeStyle;rounded=0;orthogonalLoop=1;jettySize=auto;html=1;entryX=0;entryY=0.5;entryDx=0;entryDy=0;exitX=0.649;exitY=0.983;exitDx=0;exitDy=0;exitPerimeter=0;" edge="1" parent="1" source="_vYlnjiTs0-Ngbz1HomC-32" target="FK-yrk5bc35EKxnbb64K-19">
          <mxGeometry relative="1" as="geometry">
            <mxPoint x="1128" y="741" as="sourcePoint" />
          </mxGeometry>
        </mxCell>
        <mxCell id="FK-yrk5bc35EKxnbb64K-12" value="CP21 stipulates part" style="edgeLabel;html=1;align=center;verticalAlign=middle;resizable=0;points=[];" connectable="0" vertex="1" parent="FK-yrk5bc35EKxnbb64K-11">
          <mxGeometry x="0.5806" y="-1" relative="1" as="geometry">
            <mxPoint as="offset" />
          </mxGeometry>
        </mxCell>
        <mxCell id="FK-yrk5bc35EKxnbb64K-13" style="edgeStyle=orthogonalEdgeStyle;rounded=0;orthogonalLoop=1;jettySize=auto;html=1;exitX=1;exitY=0.75;exitDx=0;exitDy=0;entryX=0;entryY=0.5;entryDx=0;entryDy=0;" edge="1" parent="1" source="_vYlnjiTs0-Ngbz1HomC-32" target="FK-yrk5bc35EKxnbb64K-20">
          <mxGeometry relative="1" as="geometry">
            <mxPoint x="1188" y="726" as="sourcePoint" />
          </mxGeometry>
        </mxCell>
        <mxCell id="FK-yrk5bc35EKxnbb64K-14" value="CP19 stipulates &lt;br&gt;function" style="edgeLabel;html=1;align=center;verticalAlign=middle;resizable=0;points=[];" connectable="0" vertex="1" parent="FK-yrk5bc35EKxnbb64K-13">
          <mxGeometry x="0.2531" y="2" relative="1" as="geometry">
            <mxPoint as="offset" />
          </mxGeometry>
        </mxCell>
        <mxCell id="FK-yrk5bc35EKxnbb64K-15" value="E57 Material" style="rounded=1;whiteSpace=wrap;html=1;fillColor=#fab565" vertex="1" parent="1">
          <mxGeometry x="1370" y="520" width="120" height="60" as="geometry" />
        </mxCell>
        <mxCell id="FK-yrk5bc35EKxnbb64K-16" value="E27 Site" style="rounded=1;whiteSpace=wrap;html=1;fillColor=#e1ba9c" vertex="1" parent="1">
          <mxGeometry x="1373" y="599.5" width="120" height="60" as="geometry" />
        </mxCell>
        <mxCell id="FK-yrk5bc35EKxnbb64K-17" value="E54 Dimension" style="rounded=1;whiteSpace=wrap;html=1;fillColor=#ffffff" vertex="1" parent="1">
          <mxGeometry x="1373" y="681" width="120" height="60" as="geometry" />
        </mxCell>
        <mxCell id="FK-yrk5bc35EKxnbb64K-18" value="E73 Information Object" style="rounded=1;whiteSpace=wrap;html=1;fillColor=#fddc34" vertex="1" parent="1">
          <mxGeometry x="1373" y="847" width="120" height="60" as="geometry" />
        </mxCell>
        <mxCell id="FK-yrk5bc35EKxnbb64K-19" value="CC11 Object Trigger Template" style="rounded=1;whiteSpace=wrap;html=1;fillColor=#fddc34" vertex="1" parent="1">
          <mxGeometry x="1373" y="927" width="120" height="60" as="geometry" />
        </mxCell>
        <mxCell id="FK-yrk5bc35EKxnbb64K-20" value="E55 Type" style="rounded=1;whiteSpace=wrap;html=1;fillColor=#fab565" vertex="1" parent="1">
          <mxGeometry x="1373" y="767" width="120" height="60" as="geometry" />
        </mxCell>
      </root>
    </mxGraphModel>
  </diagram>
  <diagram id="Kwvpr946Mx-7RFFzYf_b" name="Programme Conception">
    <mxGraphModel grid="1" page="1" gridSize="10" guides="1" tooltips="1" connect="1" arrows="1" fold="1" pageScale="1" pageWidth="1169" pageHeight="827" math="0" shadow="0">
      <root>
        <mxCell id="0" />
        <mxCell id="1" parent="0" />
        <mxCell id="dI5y8UapsS3UNFrD2xsh-1" style="edgeStyle=orthogonalEdgeStyle;rounded=0;orthogonalLoop=1;jettySize=auto;html=1;exitX=0.5;exitY=0;exitDx=0;exitDy=0;strokeWidth=3;" edge="1" parent="1" source="dI5y8UapsS3UNFrD2xsh-10" target="dI5y8UapsS3UNFrD2xsh-11">
          <mxGeometry relative="1" as="geometry" />
        </mxCell>
        <mxCell id="dI5y8UapsS3UNFrD2xsh-2" style="edgeStyle=orthogonalEdgeStyle;rounded=0;orthogonalLoop=1;jettySize=auto;html=1;exitX=0.5;exitY=0;exitDx=0;exitDy=0;strokeWidth=3;" edge="1" parent="1" source="dI5y8UapsS3UNFrD2xsh-10" target="dI5y8UapsS3UNFrD2xsh-12">
          <mxGeometry relative="1" as="geometry" />
        </mxCell>
        <mxCell id="dI5y8UapsS3UNFrD2xsh-3" style="edgeStyle=orthogonalEdgeStyle;rounded=0;orthogonalLoop=1;jettySize=auto;html=1;exitX=0;exitY=0.5;exitDx=0;exitDy=0;entryX=1;entryY=0.5;entryDx=0;entryDy=0;" edge="1" parent="1" source="dI5y8UapsS3UNFrD2xsh-10" target="dI5y8UapsS3UNFrD2xsh-15">
          <mxGeometry relative="1" as="geometry" />
        </mxCell>
        <mxCell id="dI5y8UapsS3UNFrD2xsh-4" value="R19 created a&amp;nbsp;&lt;br&gt;realization of" style="edgeLabel;html=1;align=center;verticalAlign=middle;resizable=0;points=[];" connectable="0" vertex="1" parent="dI5y8UapsS3UNFrD2xsh-3">
          <mxGeometry x="0.0037" y="-2" relative="1" as="geometry">
            <mxPoint as="offset" />
          </mxGeometry>
        </mxCell>
        <mxCell id="dI5y8UapsS3UNFrD2xsh-5" style="edgeStyle=orthogonalEdgeStyle;rounded=0;orthogonalLoop=1;jettySize=auto;html=1;exitX=0.5;exitY=1;exitDx=0;exitDy=0;entryX=0.5;entryY=0;entryDx=0;entryDy=0;" edge="1" parent="1" source="dI5y8UapsS3UNFrD2xsh-10" target="dI5y8UapsS3UNFrD2xsh-18">
          <mxGeometry relative="1" as="geometry" />
        </mxCell>
        <mxCell id="RhlvQYEDTPa14VGnbewE-1" value="R17 created" style="edgeLabel;html=1;align=center;verticalAlign=middle;resizable=0;points=[];" connectable="0" vertex="1" parent="dI5y8UapsS3UNFrD2xsh-5">
          <mxGeometry x="0.0468" relative="1" as="geometry">
            <mxPoint as="offset" />
          </mxGeometry>
        </mxCell>
        <mxCell id="dI5y8UapsS3UNFrD2xsh-6" style="edgeStyle=orthogonalEdgeStyle;rounded=0;orthogonalLoop=1;jettySize=auto;html=1;exitX=1;exitY=0.75;exitDx=0;exitDy=0;entryX=0;entryY=0.5;entryDx=0;entryDy=0;" edge="1" parent="1" source="dI5y8UapsS3UNFrD2xsh-10" target="dI5y8UapsS3UNFrD2xsh-19">
          <mxGeometry relative="1" as="geometry" />
        </mxCell>
        <mxCell id="dI5y8UapsS3UNFrD2xsh-7" value="P108&amp;nbsp; has produced" style="edgeLabel;html=1;align=center;verticalAlign=middle;resizable=0;points=[];" connectable="0" vertex="1" parent="dI5y8UapsS3UNFrD2xsh-6">
          <mxGeometry x="-0.0734" y="-1" relative="1" as="geometry">
            <mxPoint as="offset" />
          </mxGeometry>
        </mxCell>
        <mxCell id="dI5y8UapsS3UNFrD2xsh-8" style="edgeStyle=orthogonalEdgeStyle;rounded=0;orthogonalLoop=1;jettySize=auto;html=1;exitX=1;exitY=0.25;exitDx=0;exitDy=0;entryX=0;entryY=0.5;entryDx=0;entryDy=0;" edge="1" parent="1" source="dI5y8UapsS3UNFrD2xsh-10" target="dI5y8UapsS3UNFrD2xsh-25">
          <mxGeometry relative="1" as="geometry">
            <Array as="points">
              <mxPoint x="890" y="399" />
              <mxPoint x="890" y="290" />
            </Array>
          </mxGeometry>
        </mxCell>
        <mxCell id="dI5y8UapsS3UNFrD2xsh-9" value="P2 has type" style="edgeLabel;html=1;align=center;verticalAlign=middle;resizable=0;points=[];" connectable="0" vertex="1" parent="dI5y8UapsS3UNFrD2xsh-8">
          <mxGeometry x="-0.6231" y="2" relative="1" as="geometry">
            <mxPoint as="offset" />
          </mxGeometry>
        </mxCell>
        <mxCell id="dI5y8UapsS3UNFrD2xsh-10" value="F28 Expression Creation" style="rounded=1;whiteSpace=wrap;html=1;fillColor=#82c3ec" vertex="1" parent="1">
          <mxGeometry x="525" y="384" width="120" height="60" as="geometry" />
        </mxCell>
        <mxCell id="dI5y8UapsS3UNFrD2xsh-11" value="E65 Creation" style="rounded=1;whiteSpace=wrap;html=1;fillColor=#82c3ec" vertex="1" parent="1">
          <mxGeometry x="390" y="260" width="120" height="60" as="geometry" />
        </mxCell>
        <mxCell id="dI5y8UapsS3UNFrD2xsh-12" value="E12 Production" style="rounded=1;whiteSpace=wrap;html=1;fillColor=#82c3ec" vertex="1" parent="1">
          <mxGeometry x="680" y="260" width="120" height="60" as="geometry" />
        </mxCell>
        <mxCell id="dI5y8UapsS3UNFrD2xsh-13" style="edgeStyle=orthogonalEdgeStyle;rounded=0;orthogonalLoop=1;jettySize=auto;html=1;exitX=0.5;exitY=1;exitDx=0;exitDy=0;entryX=0;entryY=0.5;entryDx=0;entryDy=0;" edge="1" parent="1" source="dI5y8UapsS3UNFrD2xsh-15" target="dI5y8UapsS3UNFrD2xsh-18">
          <mxGeometry relative="1" as="geometry" />
        </mxCell>
        <mxCell id="dI5y8UapsS3UNFrD2xsh-14" value="R3 is realized in" style="edgeLabel;html=1;align=center;verticalAlign=middle;resizable=0;points=[];" connectable="0" vertex="1" parent="dI5y8UapsS3UNFrD2xsh-13">
          <mxGeometry x="0.0496" y="-2" relative="1" as="geometry">
            <mxPoint as="offset" />
          </mxGeometry>
        </mxCell>
        <mxCell id="dI5y8UapsS3UNFrD2xsh-15" value="CC17 Projective Requirements" style="rounded=1;whiteSpace=wrap;html=1;fillColor=#fddc34" vertex="1" parent="1">
          <mxGeometry x="250" y="480" width="120" height="60" as="geometry" />
        </mxCell>
        <mxCell id="dI5y8UapsS3UNFrD2xsh-16" style="edgeStyle=orthogonalEdgeStyle;rounded=0;orthogonalLoop=1;jettySize=auto;html=1;exitX=1;exitY=0.5;exitDx=0;exitDy=0;" edge="1" parent="1" source="dI5y8UapsS3UNFrD2xsh-18" target="dI5y8UapsS3UNFrD2xsh-19">
          <mxGeometry relative="1" as="geometry" />
        </mxCell>
        <mxCell id="dI5y8UapsS3UNFrD2xsh-17" value="P128 is carried by" style="edgeLabel;html=1;align=center;verticalAlign=middle;resizable=0;points=[];" connectable="0" vertex="1" parent="dI5y8UapsS3UNFrD2xsh-16">
          <mxGeometry x="-0.4181" y="-4" relative="1" as="geometry">
            <mxPoint as="offset" />
          </mxGeometry>
        </mxCell>
        <mxCell id="dI5y8UapsS3UNFrD2xsh-18" value="CC6 Programme" style="rounded=1;whiteSpace=wrap;html=1;fillColor=#fddc34" vertex="1" parent="1">
          <mxGeometry x="525" y="620" width="120" height="60" as="geometry" />
        </mxCell>
        <mxCell id="dI5y8UapsS3UNFrD2xsh-19" value="E24 Physical Human-Made Thing" style="rounded=1;whiteSpace=wrap;html=1;fillColor=#e1ba9c" vertex="1" parent="1">
          <mxGeometry x="800" y="480" width="120" height="60" as="geometry" />
        </mxCell>
        <mxCell id="dI5y8UapsS3UNFrD2xsh-20" style="edgeStyle=orthogonalEdgeStyle;rounded=0;orthogonalLoop=1;jettySize=auto;html=1;exitX=1;exitY=0.5;exitDx=0;exitDy=0;" edge="1" parent="1" source="dI5y8UapsS3UNFrD2xsh-24" target="dI5y8UapsS3UNFrD2xsh-15">
          <mxGeometry relative="1" as="geometry" />
        </mxCell>
        <mxCell id="dI5y8UapsS3UNFrD2xsh-21" value="R16 iniitiated" style="edgeLabel;html=1;align=center;verticalAlign=middle;resizable=0;points=[];" connectable="0" vertex="1" parent="dI5y8UapsS3UNFrD2xsh-20">
          <mxGeometry x="-0.3171" y="-3" relative="1" as="geometry">
            <mxPoint x="12" y="-3" as="offset" />
          </mxGeometry>
        </mxCell>
        <mxCell id="dI5y8UapsS3UNFrD2xsh-22" style="edgeStyle=orthogonalEdgeStyle;rounded=0;orthogonalLoop=1;jettySize=auto;html=1;exitX=0.5;exitY=0;exitDx=0;exitDy=0;" edge="1" parent="1" source="dI5y8UapsS3UNFrD2xsh-24" target="dI5y8UapsS3UNFrD2xsh-27">
          <mxGeometry relative="1" as="geometry" />
        </mxCell>
        <mxCell id="dI5y8UapsS3UNFrD2xsh-23" value="P17 motivated by" style="edgeLabel;html=1;align=center;verticalAlign=middle;resizable=0;points=[];" connectable="0" vertex="1" parent="dI5y8UapsS3UNFrD2xsh-22">
          <mxGeometry x="0.1304" y="1" relative="1" as="geometry">
            <mxPoint as="offset" />
          </mxGeometry>
        </mxCell>
        <mxCell id="dI5y8UapsS3UNFrD2xsh-24" value="CC14 Programme Conception" style="rounded=1;whiteSpace=wrap;html=1;fillColor=#82c3ec" vertex="1" parent="1">
          <mxGeometry x="20" y="480" width="120" height="60" as="geometry" />
        </mxCell>
        <mxCell id="dI5y8UapsS3UNFrD2xsh-25" value="E55 Type" style="rounded=1;whiteSpace=wrap;html=1;fillColor=#fab565" vertex="1" parent="1">
          <mxGeometry x="990" y="260" width="120" height="60" as="geometry" />
        </mxCell>
        <mxCell id="dI5y8UapsS3UNFrD2xsh-26" value="Programming" style="rounded=1;whiteSpace=wrap;html=1;fillColor=#ffffff" vertex="1" parent="1">
          <mxGeometry x="990" y="320" width="120" height="60" as="geometry" />
        </mxCell>
        <mxCell id="dI5y8UapsS3UNFrD2xsh-27" value="CC9 Oeuvre Conception" style="rounded=1;whiteSpace=wrap;html=1;fillColor=#82c3ec" vertex="1" parent="1">
          <mxGeometry x="20" y="260" width="120" height="60" as="geometry" />
        </mxCell>
        <mxCell id="dI5y8UapsS3UNFrD2xsh-28" style="edgeStyle=orthogonalEdgeStyle;rounded=0;orthogonalLoop=1;jettySize=auto;html=1;exitX=0;exitY=0.75;exitDx=0;exitDy=0;entryX=0;entryY=0.5;entryDx=0;entryDy=0;" edge="1" parent="1" target="dI5y8UapsS3UNFrD2xsh-32">
          <mxGeometry relative="1" as="geometry">
            <Array as="points">
              <mxPoint x="440" y="665" />
              <mxPoint x="440" y="770" />
            </Array>
            <mxPoint x="525" y="665" as="sourcePoint" />
          </mxGeometry>
        </mxCell>
        <mxCell id="dI5y8UapsS3UNFrD2xsh-29" value="P165 incorporates" style="edgeLabel;html=1;align=center;verticalAlign=middle;resizable=0;points=[];" connectable="0" vertex="1" parent="dI5y8UapsS3UNFrD2xsh-28">
          <mxGeometry x="-0.0245" y="-1" relative="1" as="geometry">
            <mxPoint as="offset" />
          </mxGeometry>
        </mxCell>
        <mxCell id="dI5y8UapsS3UNFrD2xsh-30" style="edgeStyle=orthogonalEdgeStyle;rounded=0;orthogonalLoop=1;jettySize=auto;html=1;exitX=1;exitY=0.75;exitDx=0;exitDy=0;entryX=1;entryY=0.5;entryDx=0;entryDy=0;" edge="1" parent="1" target="dI5y8UapsS3UNFrD2xsh-32">
          <mxGeometry relative="1" as="geometry">
            <Array as="points">
              <mxPoint x="720" y="665" />
              <mxPoint x="720" y="770" />
            </Array>
            <mxPoint x="645" y="665" as="sourcePoint" />
          </mxGeometry>
        </mxCell>
        <mxCell id="dI5y8UapsS3UNFrD2xsh-31" value="P67 refers to" style="edgeLabel;html=1;align=center;verticalAlign=middle;resizable=0;points=[];" connectable="0" vertex="1" parent="dI5y8UapsS3UNFrD2xsh-30">
          <mxGeometry x="0.0006" y="1" relative="1" as="geometry">
            <mxPoint as="offset" />
          </mxGeometry>
        </mxCell>
        <mxCell id="dI5y8UapsS3UNFrD2xsh-32" value="CC5 Formulation" style="rounded=1;whiteSpace=wrap;html=1;fillColor=#fddc34" vertex="1" parent="1">
          <mxGeometry x="525" y="740" width="120" height="60" as="geometry" />
        </mxCell>
        <mxCell id="dI5y8UapsS3UNFrD2xsh-33" style="edgeStyle=orthogonalEdgeStyle;rounded=0;orthogonalLoop=1;jettySize=auto;html=1;exitX=0.5;exitY=1;exitDx=0;exitDy=0;entryX=0.5;entryY=0;entryDx=0;entryDy=0;" edge="1" parent="1" source="dI5y8UapsS3UNFrD2xsh-35">
          <mxGeometry relative="1" as="geometry">
            <mxPoint x="310" y="480" as="targetPoint" />
          </mxGeometry>
        </mxCell>
        <mxCell id="dI5y8UapsS3UNFrD2xsh-34" value="R10 has member" style="edgeLabel;html=1;align=center;verticalAlign=middle;resizable=0;points=[];" connectable="0" vertex="1" parent="dI5y8UapsS3UNFrD2xsh-33">
          <mxGeometry x="0.1627" y="2" relative="1" as="geometry">
            <mxPoint as="offset" />
          </mxGeometry>
        </mxCell>
        <mxCell id="dI5y8UapsS3UNFrD2xsh-35" value="CC20 Oeuvre" style="rounded=1;whiteSpace=wrap;html=1;fillColor=#fddc34" vertex="1" parent="1">
          <mxGeometry x="250" y="260" width="120" height="60" as="geometry" />
        </mxCell>
        <mxCell id="dI5y8UapsS3UNFrD2xsh-36" style="edgeStyle=orthogonalEdgeStyle;rounded=0;orthogonalLoop=1;jettySize=auto;html=1;exitX=1;exitY=0.5;exitDx=0;exitDy=0;" edge="1" parent="1" source="dI5y8UapsS3UNFrD2xsh-27" target="dI5y8UapsS3UNFrD2xsh-35">
          <mxGeometry relative="1" as="geometry">
            <mxPoint x="160" y="200" as="sourcePoint" />
          </mxGeometry>
        </mxCell>
        <mxCell id="dI5y8UapsS3UNFrD2xsh-37" value="R16 iniitiated" style="edgeLabel;html=1;align=center;verticalAlign=middle;resizable=0;points=[];" connectable="0" vertex="1" parent="dI5y8UapsS3UNFrD2xsh-36">
          <mxGeometry x="-0.3171" y="-3" relative="1" as="geometry">
            <mxPoint x="12" y="-3" as="offset" />
          </mxGeometry>
        </mxCell>
      </root>
    </mxGraphModel>
  </diagram>
  <diagram id="7G1oqsDGRC1bTm8ahelK" name="Design Conception">
    <mxGraphModel grid="1" page="1" gridSize="10" guides="1" tooltips="1" connect="1" arrows="1" fold="1" pageScale="1" pageWidth="1169" pageHeight="827" math="0" shadow="0">
      <root>
        <mxCell id="0" />
        <mxCell id="1" parent="0" />
        <mxCell id="dI_jBUZKe0FJ6o_1999H-3" style="edgeStyle=orthogonalEdgeStyle;rounded=0;orthogonalLoop=1;jettySize=auto;html=1;exitX=0;exitY=0.5;exitDx=0;exitDy=0;entryX=1;entryY=0.5;entryDx=0;entryDy=0;" edge="1" parent="1" source="dI_jBUZKe0FJ6o_1999H-10" target="dI_jBUZKe0FJ6o_1999H-15">
          <mxGeometry relative="1" as="geometry" />
        </mxCell>
        <mxCell id="dI_jBUZKe0FJ6o_1999H-4" value="R19 created a&amp;nbsp;&lt;br&gt;realization of" style="edgeLabel;html=1;align=center;verticalAlign=middle;resizable=0;points=[];" connectable="0" vertex="1" parent="dI_jBUZKe0FJ6o_1999H-3">
          <mxGeometry x="0.0037" y="-2" relative="1" as="geometry">
            <mxPoint as="offset" />
          </mxGeometry>
        </mxCell>
        <mxCell id="dI_jBUZKe0FJ6o_1999H-5" style="edgeStyle=orthogonalEdgeStyle;rounded=0;orthogonalLoop=1;jettySize=auto;html=1;exitX=0.5;exitY=1;exitDx=0;exitDy=0;entryX=0.5;entryY=0;entryDx=0;entryDy=0;" edge="1" parent="1" source="dI_jBUZKe0FJ6o_1999H-10" target="dI_jBUZKe0FJ6o_1999H-22">
          <mxGeometry relative="1" as="geometry" />
        </mxCell>
        <mxCell id="FRohrAbFroEXC0B9JMZS-1" value="R17 created" style="edgeLabel;html=1;align=center;verticalAlign=middle;resizable=0;points=[];" connectable="0" vertex="1" parent="dI_jBUZKe0FJ6o_1999H-5">
          <mxGeometry x="-0.3345" y="-1" relative="1" as="geometry">
            <mxPoint as="offset" />
          </mxGeometry>
        </mxCell>
        <mxCell id="dI_jBUZKe0FJ6o_1999H-6" style="edgeStyle=orthogonalEdgeStyle;rounded=0;orthogonalLoop=1;jettySize=auto;html=1;exitX=1;exitY=0.75;exitDx=0;exitDy=0;entryX=0;entryY=0.5;entryDx=0;entryDy=0;" edge="1" parent="1" source="dI_jBUZKe0FJ6o_1999H-10" target="dI_jBUZKe0FJ6o_1999H-23">
          <mxGeometry relative="1" as="geometry" />
        </mxCell>
        <mxCell id="dI_jBUZKe0FJ6o_1999H-7" value="P108 has produced" style="edgeLabel;html=1;align=center;verticalAlign=middle;resizable=0;points=[];" connectable="0" vertex="1" parent="dI_jBUZKe0FJ6o_1999H-6">
          <mxGeometry x="-0.0734" y="-1" relative="1" as="geometry">
            <mxPoint as="offset" />
          </mxGeometry>
        </mxCell>
        <mxCell id="dI_jBUZKe0FJ6o_1999H-8" style="edgeStyle=orthogonalEdgeStyle;rounded=0;orthogonalLoop=1;jettySize=auto;html=1;exitX=1;exitY=0.5;exitDx=0;exitDy=0;" edge="1" parent="1" source="dI_jBUZKe0FJ6o_1999H-10" target="dI_jBUZKe0FJ6o_1999H-30">
          <mxGeometry relative="1" as="geometry">
            <Array as="points">
              <mxPoint x="750" y="414" />
              <mxPoint x="750" y="270" />
            </Array>
            <mxPoint x="660.0000000000001" y="383.64" as="sourcePoint" />
            <mxPoint x="700" y="270" as="targetPoint" />
          </mxGeometry>
        </mxCell>
        <mxCell id="dI_jBUZKe0FJ6o_1999H-9" value="P2 has type" style="edgeLabel;html=1;align=center;verticalAlign=middle;resizable=0;points=[];" connectable="0" vertex="1" parent="dI_jBUZKe0FJ6o_1999H-8">
          <mxGeometry x="-0.6231" y="2" relative="1" as="geometry">
            <mxPoint x="38" y="-52" as="offset" />
          </mxGeometry>
        </mxCell>
        <mxCell id="dI_jBUZKe0FJ6o_1999H-10" value="F28 Expression Creation" style="rounded=1;whiteSpace=wrap;html=1;fillColor=#82c3ec" vertex="1" parent="1">
          <mxGeometry x="525" y="384" width="120" height="60" as="geometry" />
        </mxCell>
        <mxCell id="dI_jBUZKe0FJ6o_1999H-13" style="edgeStyle=orthogonalEdgeStyle;rounded=0;orthogonalLoop=1;jettySize=auto;html=1;exitX=0.5;exitY=1;exitDx=0;exitDy=0;entryX=0;entryY=0.5;entryDx=0;entryDy=0;" edge="1" parent="1" source="dI_jBUZKe0FJ6o_1999H-15" target="dI_jBUZKe0FJ6o_1999H-22">
          <mxGeometry relative="1" as="geometry" />
        </mxCell>
        <mxCell id="dI_jBUZKe0FJ6o_1999H-14" value="R3 is realized in" style="edgeLabel;html=1;align=center;verticalAlign=middle;resizable=0;points=[];" connectable="0" vertex="1" parent="dI_jBUZKe0FJ6o_1999H-13">
          <mxGeometry x="0.0496" y="-2" relative="1" as="geometry">
            <mxPoint as="offset" />
          </mxGeometry>
        </mxCell>
        <mxCell id="dI_jBUZKe0FJ6o_1999H-15" value="CC13 Design Concept" style="rounded=1;whiteSpace=wrap;html=1;fillColor=#fddc34" vertex="1" parent="1">
          <mxGeometry x="250" y="480" width="120" height="60" as="geometry" />
        </mxCell>
        <mxCell id="dI_jBUZKe0FJ6o_1999H-16" style="edgeStyle=orthogonalEdgeStyle;rounded=0;orthogonalLoop=1;jettySize=auto;html=1;exitX=1;exitY=0.5;exitDx=0;exitDy=0;" edge="1" parent="1" source="dI_jBUZKe0FJ6o_1999H-22" target="dI_jBUZKe0FJ6o_1999H-23">
          <mxGeometry relative="1" as="geometry" />
        </mxCell>
        <mxCell id="dI_jBUZKe0FJ6o_1999H-17" value="P128 is carried by" style="edgeLabel;html=1;align=center;verticalAlign=middle;resizable=0;points=[];" connectable="0" vertex="1" parent="dI_jBUZKe0FJ6o_1999H-16">
          <mxGeometry x="-0.4181" y="-4" relative="1" as="geometry">
            <mxPoint as="offset" />
          </mxGeometry>
        </mxCell>
        <mxCell id="dI_jBUZKe0FJ6o_1999H-18" style="edgeStyle=orthogonalEdgeStyle;rounded=0;orthogonalLoop=1;jettySize=auto;html=1;exitX=0;exitY=0.75;exitDx=0;exitDy=0;entryX=0;entryY=0.5;entryDx=0;entryDy=0;" edge="1" parent="1" source="dI_jBUZKe0FJ6o_1999H-22" target="dI_jBUZKe0FJ6o_1999H-34">
          <mxGeometry relative="1" as="geometry">
            <Array as="points">
              <mxPoint x="440" y="665" />
              <mxPoint x="440" y="770" />
            </Array>
          </mxGeometry>
        </mxCell>
        <mxCell id="dI_jBUZKe0FJ6o_1999H-19" value="P165 incorporates" style="edgeLabel;html=1;align=center;verticalAlign=middle;resizable=0;points=[];" connectable="0" vertex="1" parent="dI_jBUZKe0FJ6o_1999H-18">
          <mxGeometry x="-0.0245" y="-1" relative="1" as="geometry">
            <mxPoint as="offset" />
          </mxGeometry>
        </mxCell>
        <mxCell id="dI_jBUZKe0FJ6o_1999H-20" style="edgeStyle=orthogonalEdgeStyle;rounded=0;orthogonalLoop=1;jettySize=auto;html=1;exitX=1;exitY=0.75;exitDx=0;exitDy=0;entryX=1;entryY=0.5;entryDx=0;entryDy=0;" edge="1" parent="1" source="dI_jBUZKe0FJ6o_1999H-22" target="dI_jBUZKe0FJ6o_1999H-34">
          <mxGeometry relative="1" as="geometry">
            <Array as="points">
              <mxPoint x="720" y="665" />
              <mxPoint x="720" y="770" />
            </Array>
          </mxGeometry>
        </mxCell>
        <mxCell id="dI_jBUZKe0FJ6o_1999H-21" value="P67 refers to" style="edgeLabel;html=1;align=center;verticalAlign=middle;resizable=0;points=[];" connectable="0" vertex="1" parent="dI_jBUZKe0FJ6o_1999H-20">
          <mxGeometry x="0.0006" y="1" relative="1" as="geometry">
            <mxPoint as="offset" />
          </mxGeometry>
        </mxCell>
        <mxCell id="dI_jBUZKe0FJ6o_1999H-22" value="CC1 Model" style="rounded=1;whiteSpace=wrap;html=1;fillColor=#fddc34" vertex="1" parent="1">
          <mxGeometry x="525" y="620" width="120" height="60" as="geometry" />
        </mxCell>
        <mxCell id="dI_jBUZKe0FJ6o_1999H-23" value="E24 Physical Human-Made Thing" style="rounded=1;whiteSpace=wrap;html=1;fillColor=#e1ba9c" vertex="1" parent="1">
          <mxGeometry x="854.6" y="480" width="120" height="60" as="geometry" />
        </mxCell>
        <mxCell id="dI_jBUZKe0FJ6o_1999H-24" style="edgeStyle=orthogonalEdgeStyle;rounded=0;orthogonalLoop=1;jettySize=auto;html=1;exitX=1;exitY=0.5;exitDx=0;exitDy=0;" edge="1" parent="1" source="dI_jBUZKe0FJ6o_1999H-29" target="dI_jBUZKe0FJ6o_1999H-15">
          <mxGeometry relative="1" as="geometry" />
        </mxCell>
        <mxCell id="dI_jBUZKe0FJ6o_1999H-25" value="R16 iniitiated" style="edgeLabel;html=1;align=center;verticalAlign=middle;resizable=0;points=[];" connectable="0" vertex="1" parent="dI_jBUZKe0FJ6o_1999H-24">
          <mxGeometry x="-0.3171" y="-3" relative="1" as="geometry">
            <mxPoint x="12" y="-3" as="offset" />
          </mxGeometry>
        </mxCell>
        <mxCell id="dI_jBUZKe0FJ6o_1999H-26" style="edgeStyle=orthogonalEdgeStyle;rounded=0;orthogonalLoop=1;jettySize=auto;html=1;exitX=0.5;exitY=0;exitDx=0;exitDy=0;" edge="1" parent="1" source="dI_jBUZKe0FJ6o_1999H-29" target="dI_jBUZKe0FJ6o_1999H-33">
          <mxGeometry relative="1" as="geometry" />
        </mxCell>
        <mxCell id="dI_jBUZKe0FJ6o_1999H-27" style="edgeStyle=orthogonalEdgeStyle;rounded=0;orthogonalLoop=1;jettySize=auto;html=1;exitX=0.5;exitY=0;exitDx=0;exitDy=0;entryX=0;entryY=0.5;entryDx=0;entryDy=0;" edge="1" parent="1" source="dI_jBUZKe0FJ6o_1999H-29" target="dI_jBUZKe0FJ6o_1999H-32">
          <mxGeometry relative="1" as="geometry" />
        </mxCell>
        <mxCell id="dI_jBUZKe0FJ6o_1999H-28" value="P17 motivated by" style="edgeLabel;html=1;align=center;verticalAlign=middle;resizable=0;points=[];" connectable="0" vertex="1" parent="dI_jBUZKe0FJ6o_1999H-27">
          <mxGeometry x="-0.5386" y="-3" relative="1" as="geometry">
            <mxPoint as="offset" />
          </mxGeometry>
        </mxCell>
        <mxCell id="dI_jBUZKe0FJ6o_1999H-29" value="CC15 Design Conception" style="rounded=1;whiteSpace=wrap;html=1;fillColor=#82c3ec" vertex="1" parent="1">
          <mxGeometry x="40" y="480" width="120" height="60" as="geometry" />
        </mxCell>
        <mxCell id="dI_jBUZKe0FJ6o_1999H-30" value="E55 Type" style="rounded=1;whiteSpace=wrap;html=1;fillColor=#fab565" vertex="1" parent="1">
          <mxGeometry x="854.6" y="230" width="120" height="60" as="geometry" />
        </mxCell>
        <mxCell id="dI_jBUZKe0FJ6o_1999H-31" value="Designing" style="rounded=1;whiteSpace=wrap;html=1;fillColor=#ffffff" vertex="1" parent="1">
          <mxGeometry x="854.6" y="290" width="120" height="60" as="geometry" />
        </mxCell>
        <mxCell id="dI_jBUZKe0FJ6o_1999H-32" value="CC9 Oeuvre Conception" style="rounded=1;whiteSpace=wrap;html=1;fillColor=#82c3ec" vertex="1" parent="1">
          <mxGeometry x="40" y="170" width="120" height="60" as="geometry" />
        </mxCell>
        <mxCell id="dI_jBUZKe0FJ6o_1999H-33" value="CC14 Programme Conception" style="rounded=1;whiteSpace=wrap;html=1;fillColor=#82c3ec" vertex="1" parent="1">
          <mxGeometry x="40" y="260" width="120" height="60" as="geometry" />
        </mxCell>
        <mxCell id="dI_jBUZKe0FJ6o_1999H-34" value="CC5 Formulation" style="rounded=1;whiteSpace=wrap;html=1;fillColor=#fddc34" vertex="1" parent="1">
          <mxGeometry x="525" y="740" width="120" height="60" as="geometry" />
        </mxCell>
        <mxCell id="dI_jBUZKe0FJ6o_1999H-35" style="edgeStyle=orthogonalEdgeStyle;rounded=0;orthogonalLoop=1;jettySize=auto;html=1;exitX=0.5;exitY=1;exitDx=0;exitDy=0;entryX=0.5;entryY=0;entryDx=0;entryDy=0;" edge="1" parent="1" source="dI_jBUZKe0FJ6o_1999H-37" target="dI_jBUZKe0FJ6o_1999H-15">
          <mxGeometry relative="1" as="geometry" />
        </mxCell>
        <mxCell id="dI_jBUZKe0FJ6o_1999H-36" value="R10 has member" style="edgeLabel;html=1;align=center;verticalAlign=middle;resizable=0;points=[];" connectable="0" vertex="1" parent="dI_jBUZKe0FJ6o_1999H-35">
          <mxGeometry x="0.1627" y="2" relative="1" as="geometry">
            <mxPoint as="offset" />
          </mxGeometry>
        </mxCell>
        <mxCell id="dI_jBUZKe0FJ6o_1999H-37" value="CC20 Oeuvre" style="rounded=1;whiteSpace=wrap;html=1;fillColor=#fddc34" vertex="1" parent="1">
          <mxGeometry x="250" y="170" width="120" height="60" as="geometry" />
        </mxCell>
        <mxCell id="dI_jBUZKe0FJ6o_1999H-38" style="edgeStyle=orthogonalEdgeStyle;rounded=0;orthogonalLoop=1;jettySize=auto;html=1;exitX=1;exitY=0.5;exitDx=0;exitDy=0;" edge="1" parent="1" target="dI_jBUZKe0FJ6o_1999H-37">
          <mxGeometry relative="1" as="geometry">
            <mxPoint x="160" y="200" as="sourcePoint" />
          </mxGeometry>
        </mxCell>
        <mxCell id="dI_jBUZKe0FJ6o_1999H-39" value="R16 iniitiated" style="edgeLabel;html=1;align=center;verticalAlign=middle;resizable=0;points=[];" connectable="0" vertex="1" parent="dI_jBUZKe0FJ6o_1999H-38">
          <mxGeometry x="-0.3171" y="-3" relative="1" as="geometry">
            <mxPoint x="12" y="-3" as="offset" />
          </mxGeometry>
        </mxCell>
        <mxCell id="gnLGrGDIcYMLWp5JiJP0-1" style="edgeStyle=orthogonalEdgeStyle;rounded=0;orthogonalLoop=1;jettySize=auto;html=1;exitX=0.5;exitY=0;exitDx=0;exitDy=0;strokeWidth=3;" edge="1" parent="1" source="dI_jBUZKe0FJ6o_1999H-10" target="gnLGrGDIcYMLWp5JiJP0-3">
          <mxGeometry relative="1" as="geometry">
            <mxPoint x="575" y="334" as="sourcePoint" />
          </mxGeometry>
        </mxCell>
        <mxCell id="gnLGrGDIcYMLWp5JiJP0-2" style="edgeStyle=orthogonalEdgeStyle;rounded=0;orthogonalLoop=1;jettySize=auto;html=1;exitX=0.5;exitY=0;exitDx=0;exitDy=0;strokeWidth=3;" edge="1" parent="1" source="dI_jBUZKe0FJ6o_1999H-10" target="gnLGrGDIcYMLWp5JiJP0-4">
          <mxGeometry relative="1" as="geometry">
            <mxPoint x="575" y="334" as="sourcePoint" />
          </mxGeometry>
        </mxCell>
        <mxCell id="gnLGrGDIcYMLWp5JiJP0-3" value="E65 Creation" style="rounded=1;whiteSpace=wrap;html=1;fillColor=#82c3ec" vertex="1" parent="1">
          <mxGeometry x="440" y="210" width="120" height="60" as="geometry" />
        </mxCell>
        <mxCell id="gnLGrGDIcYMLWp5JiJP0-4" value="E12 Production" style="rounded=1;whiteSpace=wrap;html=1;fillColor=#82c3ec" vertex="1" parent="1">
          <mxGeometry x="610" y="210" width="120" height="60" as="geometry" />
        </mxCell>
      </root>
    </mxGraphModel>
  </diagram>
  <diagram id="9V7kG-dlzCSPUWDmDOjl" name="Realization Planning">
    <mxGraphModel grid="1" page="1" gridSize="10" guides="1" tooltips="1" connect="1" arrows="1" fold="1" pageScale="1" pageWidth="1169" pageHeight="827" math="0" shadow="0">
      <root>
        <mxCell id="0" />
        <mxCell id="1" parent="0" />
        <mxCell id="s9Dc6p4jeatCKkyOiJuR-1" style="edgeStyle=orthogonalEdgeStyle;rounded=0;orthogonalLoop=1;jettySize=auto;html=1;exitX=0.5;exitY=0;exitDx=0;exitDy=0;strokeWidth=3;" edge="1" parent="1" source="s9Dc6p4jeatCKkyOiJuR-10" target="s9Dc6p4jeatCKkyOiJuR-11">
          <mxGeometry relative="1" as="geometry" />
        </mxCell>
        <mxCell id="s9Dc6p4jeatCKkyOiJuR-2" style="edgeStyle=orthogonalEdgeStyle;rounded=0;orthogonalLoop=1;jettySize=auto;html=1;exitX=0.5;exitY=0;exitDx=0;exitDy=0;strokeWidth=3;" edge="1" parent="1" source="s9Dc6p4jeatCKkyOiJuR-10" target="s9Dc6p4jeatCKkyOiJuR-12">
          <mxGeometry relative="1" as="geometry" />
        </mxCell>
        <mxCell id="s9Dc6p4jeatCKkyOiJuR-3" style="edgeStyle=orthogonalEdgeStyle;rounded=0;orthogonalLoop=1;jettySize=auto;html=1;exitX=0;exitY=0.5;exitDx=0;exitDy=0;entryX=1;entryY=0.5;entryDx=0;entryDy=0;" edge="1" parent="1" source="s9Dc6p4jeatCKkyOiJuR-10" target="s9Dc6p4jeatCKkyOiJuR-15">
          <mxGeometry relative="1" as="geometry" />
        </mxCell>
        <mxCell id="s9Dc6p4jeatCKkyOiJuR-4" value="R19 created a&amp;nbsp;&lt;br&gt;realization of" style="edgeLabel;html=1;align=center;verticalAlign=middle;resizable=0;points=[];" connectable="0" vertex="1" parent="s9Dc6p4jeatCKkyOiJuR-3">
          <mxGeometry x="0.0037" y="-2" relative="1" as="geometry">
            <mxPoint as="offset" />
          </mxGeometry>
        </mxCell>
        <mxCell id="s9Dc6p4jeatCKkyOiJuR-5" style="edgeStyle=orthogonalEdgeStyle;rounded=0;orthogonalLoop=1;jettySize=auto;html=1;exitX=0.5;exitY=1;exitDx=0;exitDy=0;entryX=0.5;entryY=0;entryDx=0;entryDy=0;" edge="1" parent="1" source="s9Dc6p4jeatCKkyOiJuR-10" target="s9Dc6p4jeatCKkyOiJuR-18">
          <mxGeometry relative="1" as="geometry" />
        </mxCell>
        <mxCell id="vMfYkNQkpVREfmWZTonN-1" value="R17 created" style="edgeLabel;html=1;align=center;verticalAlign=middle;resizable=0;points=[];" connectable="0" vertex="1" parent="s9Dc6p4jeatCKkyOiJuR-5">
          <mxGeometry x="-0.0618" y="-1" relative="1" as="geometry">
            <mxPoint as="offset" />
          </mxGeometry>
        </mxCell>
        <mxCell id="s9Dc6p4jeatCKkyOiJuR-6" style="edgeStyle=orthogonalEdgeStyle;rounded=0;orthogonalLoop=1;jettySize=auto;html=1;exitX=1;exitY=0.75;exitDx=0;exitDy=0;entryX=0;entryY=0.5;entryDx=0;entryDy=0;" edge="1" parent="1" source="s9Dc6p4jeatCKkyOiJuR-10" target="s9Dc6p4jeatCKkyOiJuR-19">
          <mxGeometry relative="1" as="geometry" />
        </mxCell>
        <mxCell id="s9Dc6p4jeatCKkyOiJuR-7" value="P108 has produced" style="edgeLabel;html=1;align=center;verticalAlign=middle;resizable=0;points=[];" connectable="0" vertex="1" parent="s9Dc6p4jeatCKkyOiJuR-6">
          <mxGeometry x="-0.0734" y="-1" relative="1" as="geometry">
            <mxPoint as="offset" />
          </mxGeometry>
        </mxCell>
        <mxCell id="s9Dc6p4jeatCKkyOiJuR-8" style="edgeStyle=orthogonalEdgeStyle;rounded=0;orthogonalLoop=1;jettySize=auto;html=1;exitX=1;exitY=0.25;exitDx=0;exitDy=0;entryX=0;entryY=0.5;entryDx=0;entryDy=0;" edge="1" parent="1" source="s9Dc6p4jeatCKkyOiJuR-10" target="s9Dc6p4jeatCKkyOiJuR-24">
          <mxGeometry relative="1" as="geometry">
            <Array as="points">
              <mxPoint x="890" y="399" />
              <mxPoint x="890" y="290" />
            </Array>
          </mxGeometry>
        </mxCell>
        <mxCell id="s9Dc6p4jeatCKkyOiJuR-9" value="P2 has type" style="edgeLabel;html=1;align=center;verticalAlign=middle;resizable=0;points=[];" connectable="0" vertex="1" parent="s9Dc6p4jeatCKkyOiJuR-8">
          <mxGeometry x="-0.6231" y="2" relative="1" as="geometry">
            <mxPoint as="offset" />
          </mxGeometry>
        </mxCell>
        <mxCell id="s9Dc6p4jeatCKkyOiJuR-10" value="F28 Expression Creation" style="rounded=1;whiteSpace=wrap;html=1;fillColor=#82c3ec" vertex="1" parent="1">
          <mxGeometry x="525" y="384" width="120" height="60" as="geometry" />
        </mxCell>
        <mxCell id="s9Dc6p4jeatCKkyOiJuR-11" value="E65 Creation" style="rounded=1;whiteSpace=wrap;html=1;fillColor=#82c3ec" vertex="1" parent="1">
          <mxGeometry x="390" y="260" width="120" height="60" as="geometry" />
        </mxCell>
        <mxCell id="s9Dc6p4jeatCKkyOiJuR-12" value="E12 Production" style="rounded=1;whiteSpace=wrap;html=1;fillColor=#82c3ec" vertex="1" parent="1">
          <mxGeometry x="670" y="260" width="120" height="60" as="geometry" />
        </mxCell>
        <mxCell id="s9Dc6p4jeatCKkyOiJuR-13" style="edgeStyle=orthogonalEdgeStyle;rounded=0;orthogonalLoop=1;jettySize=auto;html=1;exitX=0.5;exitY=1;exitDx=0;exitDy=0;entryX=0;entryY=0.5;entryDx=0;entryDy=0;" edge="1" parent="1" source="s9Dc6p4jeatCKkyOiJuR-15" target="s9Dc6p4jeatCKkyOiJuR-18">
          <mxGeometry relative="1" as="geometry" />
        </mxCell>
        <mxCell id="s9Dc6p4jeatCKkyOiJuR-14" value="R3 is realized in" style="edgeLabel;html=1;align=center;verticalAlign=middle;resizable=0;points=[];" connectable="0" vertex="1" parent="s9Dc6p4jeatCKkyOiJuR-13">
          <mxGeometry x="0.0496" y="-2" relative="1" as="geometry">
            <mxPoint as="offset" />
          </mxGeometry>
        </mxCell>
        <mxCell id="s9Dc6p4jeatCKkyOiJuR-15" value="CC3 Realization Concept" style="rounded=1;whiteSpace=wrap;html=1;fillColor=#fddc34" vertex="1" parent="1">
          <mxGeometry x="250" y="480" width="120" height="60" as="geometry" />
        </mxCell>
        <mxCell id="s9Dc6p4jeatCKkyOiJuR-16" style="edgeStyle=orthogonalEdgeStyle;rounded=0;orthogonalLoop=1;jettySize=auto;html=1;exitX=1;exitY=0.5;exitDx=0;exitDy=0;" edge="1" parent="1" source="s9Dc6p4jeatCKkyOiJuR-18" target="s9Dc6p4jeatCKkyOiJuR-19">
          <mxGeometry relative="1" as="geometry" />
        </mxCell>
        <mxCell id="s9Dc6p4jeatCKkyOiJuR-17" value="P128 is carried by" style="edgeLabel;html=1;align=center;verticalAlign=middle;resizable=0;points=[];" connectable="0" vertex="1" parent="s9Dc6p4jeatCKkyOiJuR-16">
          <mxGeometry x="-0.4181" y="-4" relative="1" as="geometry">
            <mxPoint as="offset" />
          </mxGeometry>
        </mxCell>
        <mxCell id="s9Dc6p4jeatCKkyOiJuR-18" value="CC4 Realization Plan" style="rounded=1;whiteSpace=wrap;html=1;fillColor=#fddc34" vertex="1" parent="1">
          <mxGeometry x="525" y="620" width="120" height="60" as="geometry" />
        </mxCell>
        <mxCell id="s9Dc6p4jeatCKkyOiJuR-19" value="E24 Physical Human-Made Thing" style="rounded=1;whiteSpace=wrap;html=1;fillColor=#e1ba9c" vertex="1" parent="1">
          <mxGeometry x="800" y="480" width="120" height="60" as="geometry" />
        </mxCell>
        <mxCell id="s9Dc6p4jeatCKkyOiJuR-20" style="edgeStyle=orthogonalEdgeStyle;rounded=0;orthogonalLoop=1;jettySize=auto;html=1;exitX=1;exitY=0.5;exitDx=0;exitDy=0;" edge="1" parent="1" source="s9Dc6p4jeatCKkyOiJuR-23" target="s9Dc6p4jeatCKkyOiJuR-15">
          <mxGeometry relative="1" as="geometry" />
        </mxCell>
        <mxCell id="s9Dc6p4jeatCKkyOiJuR-21" value="R16 iniitiated" style="edgeLabel;html=1;align=center;verticalAlign=middle;resizable=0;points=[];" connectable="0" vertex="1" parent="s9Dc6p4jeatCKkyOiJuR-20">
          <mxGeometry x="-0.3171" y="-3" relative="1" as="geometry">
            <mxPoint x="12" y="-3" as="offset" />
          </mxGeometry>
        </mxCell>
        <mxCell id="s9Dc6p4jeatCKkyOiJuR-22" style="edgeStyle=orthogonalEdgeStyle;rounded=0;orthogonalLoop=1;jettySize=auto;html=1;exitX=0.5;exitY=0;exitDx=0;exitDy=0;" edge="1" parent="1" source="s9Dc6p4jeatCKkyOiJuR-23" target="s9Dc6p4jeatCKkyOiJuR-26">
          <mxGeometry relative="1" as="geometry" />
        </mxCell>
        <mxCell id="s9Dc6p4jeatCKkyOiJuR-23" value="CC16 Realization Planning" style="rounded=1;whiteSpace=wrap;html=1;fillColor=#82c3ec" vertex="1" parent="1">
          <mxGeometry x="30" y="480" width="120" height="60" as="geometry" />
        </mxCell>
        <mxCell id="s9Dc6p4jeatCKkyOiJuR-24" value="E55 Type" style="rounded=1;whiteSpace=wrap;html=1;fillColor=#fab565" vertex="1" parent="1">
          <mxGeometry x="990" y="260" width="120" height="60" as="geometry" />
        </mxCell>
        <mxCell id="s9Dc6p4jeatCKkyOiJuR-25" value="Realization Planning" style="rounded=1;whiteSpace=wrap;html=1;fillColor=#ffffff" vertex="1" parent="1">
          <mxGeometry x="990" y="320" width="120" height="60" as="geometry" />
        </mxCell>
        <mxCell id="s9Dc6p4jeatCKkyOiJuR-26" value="CC15 Design Conception" style="rounded=1;whiteSpace=wrap;html=1;fillColor=#82c3ec" vertex="1" parent="1">
          <mxGeometry x="30" y="260" width="120" height="60" as="geometry" />
        </mxCell>
        <mxCell id="s9Dc6p4jeatCKkyOiJuR-27" style="edgeStyle=orthogonalEdgeStyle;rounded=0;orthogonalLoop=1;jettySize=auto;html=1;entryX=0;entryY=0.5;entryDx=0;entryDy=0;" edge="1" parent="1" source="s9Dc6p4jeatCKkyOiJuR-18" target="s9Dc6p4jeatCKkyOiJuR-31">
          <mxGeometry relative="1" as="geometry">
            <mxPoint x="525" y="665" as="sourcePoint" />
            <Array as="points">
              <mxPoint x="440" y="665" />
              <mxPoint x="440" y="770" />
            </Array>
          </mxGeometry>
        </mxCell>
        <mxCell id="s9Dc6p4jeatCKkyOiJuR-28" value="P165 incorporates" style="edgeLabel;html=1;align=center;verticalAlign=middle;resizable=0;points=[];" connectable="0" vertex="1" parent="s9Dc6p4jeatCKkyOiJuR-27">
          <mxGeometry x="-0.0245" y="-1" relative="1" as="geometry">
            <mxPoint as="offset" />
          </mxGeometry>
        </mxCell>
        <mxCell id="s9Dc6p4jeatCKkyOiJuR-29" style="edgeStyle=orthogonalEdgeStyle;rounded=0;orthogonalLoop=1;jettySize=auto;html=1;entryX=1;entryY=0.5;entryDx=0;entryDy=0;" edge="1" parent="1" target="s9Dc6p4jeatCKkyOiJuR-31">
          <mxGeometry relative="1" as="geometry">
            <mxPoint x="645" y="665" as="sourcePoint" />
            <Array as="points">
              <mxPoint x="720" y="665" />
              <mxPoint x="720" y="770" />
            </Array>
          </mxGeometry>
        </mxCell>
        <mxCell id="s9Dc6p4jeatCKkyOiJuR-30" value="P67 refers to" style="edgeLabel;html=1;align=center;verticalAlign=middle;resizable=0;points=[];" connectable="0" vertex="1" parent="s9Dc6p4jeatCKkyOiJuR-29">
          <mxGeometry x="0.0006" y="1" relative="1" as="geometry">
            <mxPoint as="offset" />
          </mxGeometry>
        </mxCell>
        <mxCell id="s9Dc6p4jeatCKkyOiJuR-31" value="CC5 Formulation" style="rounded=1;whiteSpace=wrap;html=1;fillColor=#fddc34" vertex="1" parent="1">
          <mxGeometry x="525" y="740" width="120" height="60" as="geometry" />
        </mxCell>
        <mxCell id="s9Dc6p4jeatCKkyOiJuR-32" style="edgeStyle=orthogonalEdgeStyle;rounded=0;orthogonalLoop=1;jettySize=auto;html=1;exitX=0.5;exitY=0;exitDx=0;exitDy=0;entryX=0;entryY=0.5;entryDx=0;entryDy=0;" edge="1" parent="1" source="s9Dc6p4jeatCKkyOiJuR-23" target="s9Dc6p4jeatCKkyOiJuR-36">
          <mxGeometry relative="1" as="geometry">
            <mxPoint x="110" y="480" as="sourcePoint" />
          </mxGeometry>
        </mxCell>
        <mxCell id="s9Dc6p4jeatCKkyOiJuR-33" value="P17 motivated by" style="edgeLabel;html=1;align=center;verticalAlign=middle;resizable=0;points=[];" connectable="0" vertex="1" parent="s9Dc6p4jeatCKkyOiJuR-32">
          <mxGeometry x="-0.5386" y="-3" relative="1" as="geometry">
            <mxPoint as="offset" />
          </mxGeometry>
        </mxCell>
        <mxCell id="s9Dc6p4jeatCKkyOiJuR-34" style="edgeStyle=orthogonalEdgeStyle;rounded=0;orthogonalLoop=1;jettySize=auto;html=1;exitX=1;exitY=0.5;exitDx=0;exitDy=0;entryX=0;entryY=0.5;entryDx=0;entryDy=0;" edge="1" parent="1" source="s9Dc6p4jeatCKkyOiJuR-36" target="s9Dc6p4jeatCKkyOiJuR-39">
          <mxGeometry relative="1" as="geometry" />
        </mxCell>
        <mxCell id="s9Dc6p4jeatCKkyOiJuR-35" value="R16 iniitiated" style="edgeLabel;html=1;align=center;verticalAlign=middle;resizable=0;points=[];" connectable="0" vertex="1" parent="s9Dc6p4jeatCKkyOiJuR-34">
          <mxGeometry x="-0.2262" y="-1" relative="1" as="geometry">
            <mxPoint as="offset" />
          </mxGeometry>
        </mxCell>
        <mxCell id="s9Dc6p4jeatCKkyOiJuR-36" value="CC9 Oeuvre Conception" style="rounded=1;whiteSpace=wrap;html=1;fillColor=#82c3ec" vertex="1" parent="1">
          <mxGeometry x="30" y="160" width="120" height="60" as="geometry" />
        </mxCell>
        <mxCell id="s9Dc6p4jeatCKkyOiJuR-37" style="edgeStyle=orthogonalEdgeStyle;rounded=0;orthogonalLoop=1;jettySize=auto;html=1;exitX=0.5;exitY=1;exitDx=0;exitDy=0;entryX=0.5;entryY=0;entryDx=0;entryDy=0;" edge="1" parent="1" source="s9Dc6p4jeatCKkyOiJuR-39">
          <mxGeometry relative="1" as="geometry">
            <mxPoint x="310" y="480" as="targetPoint" />
          </mxGeometry>
        </mxCell>
        <mxCell id="s9Dc6p4jeatCKkyOiJuR-38" value="R10 has member" style="edgeLabel;html=1;align=center;verticalAlign=middle;resizable=0;points=[];" connectable="0" vertex="1" parent="s9Dc6p4jeatCKkyOiJuR-37">
          <mxGeometry x="0.1627" y="2" relative="1" as="geometry">
            <mxPoint x="-2" y="19" as="offset" />
          </mxGeometry>
        </mxCell>
        <mxCell id="s9Dc6p4jeatCKkyOiJuR-39" value="CC20 Oeuvre" style="rounded=1;whiteSpace=wrap;html=1;fillColor=#fddc34" vertex="1" parent="1">
          <mxGeometry x="250" y="160" width="120" height="60" as="geometry" />
        </mxCell>
      </root>
    </mxGraphModel>
  </diagram>
  <diagram id="Dht2v0uNVThXl3nqFQoG" name="Realization">
    <mxGraphModel grid="1" page="1" gridSize="10" guides="1" tooltips="1" connect="1" arrows="1" fold="1" pageScale="1" pageWidth="1169" pageHeight="827" math="0" shadow="0">
      <root>
        <mxCell id="0" />
        <mxCell id="1" parent="0" />
        <mxCell id="-LC0iKlfX1Krzqlh_JNL-1" style="edgeStyle=orthogonalEdgeStyle;rounded=0;orthogonalLoop=1;jettySize=auto;html=1;exitX=0.5;exitY=0;exitDx=0;exitDy=0;endArrow=block;endFill=0;strokeWidth=3;" edge="1" parent="1" source="-LC0iKlfX1Krzqlh_JNL-8" target="-LC0iKlfX1Krzqlh_JNL-9">
          <mxGeometry relative="1" as="geometry" />
        </mxCell>
        <mxCell id="-LC0iKlfX1Krzqlh_JNL-2" style="edgeStyle=orthogonalEdgeStyle;rounded=0;orthogonalLoop=1;jettySize=auto;html=1;exitX=0.5;exitY=0;exitDx=0;exitDy=0;endArrow=block;endFill=0;strokeWidth=3;" edge="1" parent="1" source="-LC0iKlfX1Krzqlh_JNL-8" target="-LC0iKlfX1Krzqlh_JNL-10">
          <mxGeometry relative="1" as="geometry" />
        </mxCell>
        <mxCell id="-LC0iKlfX1Krzqlh_JNL-3" value="P33 used specific technique" style="edgeStyle=orthogonalEdgeStyle;rounded=0;orthogonalLoop=1;jettySize=auto;html=1;exitX=0.5;exitY=1;exitDx=0;exitDy=0;entryX=0.5;entryY=0;entryDx=0;entryDy=0;" edge="1" parent="1" source="-LC0iKlfX1Krzqlh_JNL-8" target="-LC0iKlfX1Krzqlh_JNL-11">
          <mxGeometry relative="1" as="geometry" />
        </mxCell>
        <mxCell id="-LC0iKlfX1Krzqlh_JNL-4" style="edgeStyle=orthogonalEdgeStyle;rounded=0;orthogonalLoop=1;jettySize=auto;html=1;exitX=1;exitY=0.75;exitDx=0;exitDy=0;entryX=0;entryY=0.5;entryDx=0;entryDy=0;" edge="1" parent="1" source="-LC0iKlfX1Krzqlh_JNL-8" target="-LC0iKlfX1Krzqlh_JNL-12">
          <mxGeometry relative="1" as="geometry" />
        </mxCell>
        <mxCell id="-LC0iKlfX1Krzqlh_JNL-5" value="P108 has &lt;br&gt;produced" style="edgeLabel;html=1;align=center;verticalAlign=middle;resizable=0;points=[];" connectable="0" vertex="1" parent="-LC0iKlfX1Krzqlh_JNL-4">
          <mxGeometry x="-0.0734" y="-1" relative="1" as="geometry">
            <mxPoint x="49" y="24" as="offset" />
          </mxGeometry>
        </mxCell>
        <mxCell id="-LC0iKlfX1Krzqlh_JNL-6" style="edgeStyle=orthogonalEdgeStyle;rounded=0;orthogonalLoop=1;jettySize=auto;html=1;exitX=1;exitY=0.25;exitDx=0;exitDy=0;" edge="1" parent="1" source="-LC0iKlfX1Krzqlh_JNL-8" target="-LC0iKlfX1Krzqlh_JNL-19">
          <mxGeometry relative="1" as="geometry" />
        </mxCell>
        <mxCell id="-LC0iKlfX1Krzqlh_JNL-7" value="P94 has &lt;br&gt;created" style="edgeLabel;html=1;align=center;verticalAlign=middle;resizable=0;points=[];" connectable="0" vertex="1" parent="-LC0iKlfX1Krzqlh_JNL-6">
          <mxGeometry x="-0.4261" relative="1" as="geometry">
            <mxPoint x="85" y="-30" as="offset" />
          </mxGeometry>
        </mxCell>
        <mxCell id="-LC0iKlfX1Krzqlh_JNL-8" value="CC2 Realization" style="rounded=1;whiteSpace=wrap;html=1;fillColor=#82c3ec" vertex="1" parent="1">
          <mxGeometry x="525" y="384" width="120" height="60" as="geometry" />
        </mxCell>
        <mxCell id="-LC0iKlfX1Krzqlh_JNL-9" value="E65 Creation" style="rounded=1;whiteSpace=wrap;html=1;fillColor=#82c3ec" vertex="1" parent="1">
          <mxGeometry x="390" y="260" width="120" height="60" as="geometry" />
        </mxCell>
        <mxCell id="-LC0iKlfX1Krzqlh_JNL-10" value="E12 Production" style="rounded=1;whiteSpace=wrap;html=1;fillColor=#82c3ec" vertex="1" parent="1">
          <mxGeometry x="680" y="260" width="120" height="60" as="geometry" />
        </mxCell>
        <mxCell id="-LC0iKlfX1Krzqlh_JNL-11" value="CC4 Realization Plan" style="rounded=1;whiteSpace=wrap;html=1;fillColor=#fddc34" vertex="1" parent="1">
          <mxGeometry x="525" y="620" width="120" height="60" as="geometry" />
        </mxCell>
        <mxCell id="-LC0iKlfX1Krzqlh_JNL-12" value="E24 Physical Human-Made Thing" style="rounded=1;whiteSpace=wrap;html=1;fillColor=#e1ba9c" vertex="1" parent="1">
          <mxGeometry x="860" y="429" width="120" height="60" as="geometry" />
        </mxCell>
        <mxCell id="-LC0iKlfX1Krzqlh_JNL-13" style="edgeStyle=orthogonalEdgeStyle;rounded=0;orthogonalLoop=1;jettySize=auto;html=1;exitX=0;exitY=0.5;exitDx=0;exitDy=0;entryX=0.5;entryY=1;entryDx=0;entryDy=0;" edge="1" parent="1" source="-LC0iKlfX1Krzqlh_JNL-8" target="-LC0iKlfX1Krzqlh_JNL-17">
          <mxGeometry relative="1" as="geometry">
            <mxPoint x="110" y="480" as="sourcePoint" />
            <Array as="points">
              <mxPoint x="90" y="414" />
            </Array>
          </mxGeometry>
        </mxCell>
        <mxCell id="-LC0iKlfX1Krzqlh_JNL-14" value="P17 motivated by" style="edgeLabel;html=1;align=center;verticalAlign=middle;resizable=0;points=[];" connectable="0" vertex="1" parent="-LC0iKlfX1Krzqlh_JNL-13">
          <mxGeometry x="-0.5386" y="-3" relative="1" as="geometry">
            <mxPoint as="offset" />
          </mxGeometry>
        </mxCell>
        <mxCell id="-LC0iKlfX1Krzqlh_JNL-15" style="edgeStyle=orthogonalEdgeStyle;rounded=0;orthogonalLoop=1;jettySize=auto;html=1;exitX=1;exitY=0.5;exitDx=0;exitDy=0;entryX=0;entryY=0.5;entryDx=0;entryDy=0;" edge="1" parent="1" source="-LC0iKlfX1Krzqlh_JNL-17" target="-LC0iKlfX1Krzqlh_JNL-18">
          <mxGeometry relative="1" as="geometry" />
        </mxCell>
        <mxCell id="-LC0iKlfX1Krzqlh_JNL-16" value="R16 iniitiated" style="edgeLabel;html=1;align=center;verticalAlign=middle;resizable=0;points=[];" connectable="0" vertex="1" parent="-LC0iKlfX1Krzqlh_JNL-15">
          <mxGeometry x="-0.2262" y="-1" relative="1" as="geometry">
            <mxPoint as="offset" />
          </mxGeometry>
        </mxCell>
        <mxCell id="-LC0iKlfX1Krzqlh_JNL-17" value="CC9 Oeuvre Conception" style="rounded=1;whiteSpace=wrap;html=1;fillColor=#82c3ec" vertex="1" parent="1">
          <mxGeometry x="30" y="160" width="120" height="60" as="geometry" />
        </mxCell>
        <mxCell id="-LC0iKlfX1Krzqlh_JNL-18" value="CC20 Oeuvre" style="rounded=1;whiteSpace=wrap;html=1;fillColor=#fddc34" vertex="1" parent="1">
          <mxGeometry x="250" y="160" width="120" height="60" as="geometry" />
        </mxCell>
        <mxCell id="-LC0iKlfX1Krzqlh_JNL-19" value="E73 Information Object" style="rounded=1;whiteSpace=wrap;html=1;fillColor=#fddc34" vertex="1" parent="1">
          <mxGeometry x="860" y="339" width="120" height="60" as="geometry" />
        </mxCell>
      </root>
    </mxGraphModel>
  </diagram>
  <diagram id="KppmJ-P93FIXEbWcloR8" name="Assessment">
    <mxGraphModel grid="1" page="1" gridSize="10" guides="1" tooltips="1" connect="1" arrows="1" fold="1" pageScale="1" pageWidth="1169" pageHeight="827" math="0" shadow="0">
      <root>
        <mxCell id="0" />
        <mxCell id="1" parent="0" />
        <mxCell id="7-Iw9oTtLa3knkAdBgir-6" style="edgeStyle=orthogonalEdgeStyle;rounded=0;orthogonalLoop=1;jettySize=auto;html=1;exitX=0.5;exitY=0;exitDx=0;exitDy=0;entryX=0.5;entryY=1;entryDx=0;entryDy=0;endArrow=block;endFill=0;strokeWidth=3;" edge="1" parent="1" source="7-Iw9oTtLa3knkAdBgir-14" target="7-Iw9oTtLa3knkAdBgir-15">
          <mxGeometry relative="1" as="geometry" />
        </mxCell>
        <mxCell id="7-Iw9oTtLa3knkAdBgir-7" style="edgeStyle=orthogonalEdgeStyle;rounded=0;orthogonalLoop=1;jettySize=auto;html=1;exitX=0.5;exitY=0;exitDx=0;exitDy=0;entryX=0.5;entryY=1;entryDx=0;entryDy=0;endArrow=block;endFill=0;strokeWidth=3;" edge="1" parent="1" source="7-Iw9oTtLa3knkAdBgir-14" target="7-Iw9oTtLa3knkAdBgir-16">
          <mxGeometry relative="1" as="geometry" />
        </mxCell>
        <mxCell id="7-Iw9oTtLa3knkAdBgir-8" style="edgeStyle=orthogonalEdgeStyle;rounded=0;orthogonalLoop=1;jettySize=auto;html=1;exitX=0;exitY=0.5;exitDx=0;exitDy=0;entryX=1;entryY=0.5;entryDx=0;entryDy=0;" edge="1" parent="1" source="7-Iw9oTtLa3knkAdBgir-14" target="7-Iw9oTtLa3knkAdBgir-17">
          <mxGeometry relative="1" as="geometry" />
        </mxCell>
        <mxCell id="7-Iw9oTtLa3knkAdBgir-9" value="CP22 assessed" style="edgeLabel;html=1;align=center;verticalAlign=middle;resizable=0;points=[];" connectable="0" vertex="1" parent="7-Iw9oTtLa3knkAdBgir-8">
          <mxGeometry x="-0.3748" relative="1" as="geometry">
            <mxPoint as="offset" />
          </mxGeometry>
        </mxCell>
        <mxCell id="7-Iw9oTtLa3knkAdBgir-10" style="edgeStyle=orthogonalEdgeStyle;rounded=0;orthogonalLoop=1;jettySize=auto;html=1;exitX=0.75;exitY=1;exitDx=0;exitDy=0;entryX=0;entryY=0.5;entryDx=0;entryDy=0;" edge="1" parent="1" source="7-Iw9oTtLa3knkAdBgir-14" target="7-Iw9oTtLa3knkAdBgir-18">
          <mxGeometry relative="1" as="geometry" />
        </mxCell>
        <mxCell id="7-Iw9oTtLa3knkAdBgir-11" value="P42 assigned" style="edgeLabel;html=1;align=center;verticalAlign=middle;resizable=0;points=[];" connectable="0" vertex="1" parent="7-Iw9oTtLa3knkAdBgir-10">
          <mxGeometry x="-0.072" y="1" relative="1" as="geometry">
            <mxPoint as="offset" />
          </mxGeometry>
        </mxCell>
        <mxCell id="7-Iw9oTtLa3knkAdBgir-12" style="edgeStyle=orthogonalEdgeStyle;rounded=0;orthogonalLoop=1;jettySize=auto;html=1;exitX=1;exitY=0.5;exitDx=0;exitDy=0;entryX=0;entryY=0.5;entryDx=0;entryDy=0;" edge="1" parent="1" source="7-Iw9oTtLa3knkAdBgir-14" target="7-Iw9oTtLa3knkAdBgir-19">
          <mxGeometry relative="1" as="geometry" />
        </mxCell>
        <mxCell id="7-Iw9oTtLa3knkAdBgir-13" value="CP24 produced revision" style="edgeLabel;html=1;align=center;verticalAlign=middle;resizable=0;points=[];" connectable="0" vertex="1" parent="7-Iw9oTtLa3knkAdBgir-12">
          <mxGeometry x="0.2526" y="4" relative="1" as="geometry">
            <mxPoint as="offset" />
          </mxGeometry>
        </mxCell>
        <mxCell id="7-Iw9oTtLa3knkAdBgir-14" value="CC19 Assessment" style="rounded=1;whiteSpace=wrap;html=1;fillColor=#82c3ec" vertex="1" parent="1">
          <mxGeometry x="525" y="1211" width="120" height="60" as="geometry" />
        </mxCell>
        <mxCell id="7-Iw9oTtLa3knkAdBgir-15" value="E17 Type Assignment" style="rounded=1;whiteSpace=wrap;html=1;fillColor=#82c3ec" vertex="1" parent="1">
          <mxGeometry x="390" y="1070" width="120" height="60" as="geometry" />
        </mxCell>
        <mxCell id="7-Iw9oTtLa3knkAdBgir-16" value="E65 Creation" style="rounded=1;whiteSpace=wrap;html=1;fillColor=#82c3ec" vertex="1" parent="1">
          <mxGeometry x="660" y="1070" width="120" height="60" as="geometry" />
        </mxCell>
        <mxCell id="7-Iw9oTtLa3knkAdBgir-17" value="E73 Information Object" style="rounded=1;whiteSpace=wrap;html=1;fillColor=#fddc34" vertex="1" parent="1">
          <mxGeometry x="230" y="1211" width="120" height="60" as="geometry" />
        </mxCell>
        <mxCell id="7-Iw9oTtLa3knkAdBgir-18" value="E55 Type" style="rounded=1;whiteSpace=wrap;html=1;fillColor=#fab565" vertex="1" parent="1">
          <mxGeometry x="870" y="1310" width="120" height="60" as="geometry" />
        </mxCell>
        <mxCell id="7-Iw9oTtLa3knkAdBgir-19" value="E73 Information Object" style="rounded=1;whiteSpace=wrap;html=1;fillColor=#fddc34" vertex="1" parent="1">
          <mxGeometry x="870" y="1211" width="120" height="60" as="geometry" />
        </mxCell>
      </root>
    </mxGraphModel>
  </diagram>
  <diagram id="Xu-AI20DLgyFAhuc65EQ" name="Basic FRBRoo">
    <mxGraphModel grid="1" page="1" gridSize="10" guides="1" tooltips="1" connect="1" arrows="1" fold="1" pageScale="1" pageWidth="1169" pageHeight="827" math="0" shadow="0">
      <root>
        <mxCell id="0" />
        <mxCell id="1" parent="0" />
        <mxCell id="qHMSGJQhuKfFcfL4bc5z-1" style="edgeStyle=orthogonalEdgeStyle;rounded=0;orthogonalLoop=1;jettySize=auto;html=1;exitX=0.5;exitY=0;exitDx=0;exitDy=0;endArrow=block;endFill=0;strokeWidth=3;" edge="1" parent="1" source="qHMSGJQhuKfFcfL4bc5z-9" target="qHMSGJQhuKfFcfL4bc5z-10">
          <mxGeometry relative="1" as="geometry" />
        </mxCell>
        <mxCell id="qHMSGJQhuKfFcfL4bc5z-2" style="edgeStyle=orthogonalEdgeStyle;rounded=0;orthogonalLoop=1;jettySize=auto;html=1;exitX=0.5;exitY=0;exitDx=0;exitDy=0;endArrow=block;endFill=0;strokeWidth=3;" edge="1" parent="1" source="qHMSGJQhuKfFcfL4bc5z-9" target="qHMSGJQhuKfFcfL4bc5z-11">
          <mxGeometry relative="1" as="geometry" />
        </mxCell>
        <mxCell id="qHMSGJQhuKfFcfL4bc5z-3" style="edgeStyle=orthogonalEdgeStyle;rounded=0;orthogonalLoop=1;jettySize=auto;html=1;exitX=0;exitY=0.5;exitDx=0;exitDy=0;entryX=1;entryY=0.5;entryDx=0;entryDy=0;" edge="1" parent="1" source="qHMSGJQhuKfFcfL4bc5z-9" target="qHMSGJQhuKfFcfL4bc5z-14">
          <mxGeometry relative="1" as="geometry" />
        </mxCell>
        <mxCell id="qHMSGJQhuKfFcfL4bc5z-4" value="R19 created a&amp;nbsp;&lt;br&gt;realization of" style="edgeLabel;html=1;align=center;verticalAlign=middle;resizable=0;points=[];" connectable="0" vertex="1" parent="qHMSGJQhuKfFcfL4bc5z-3">
          <mxGeometry x="0.0037" y="-2" relative="1" as="geometry">
            <mxPoint as="offset" />
          </mxGeometry>
        </mxCell>
        <mxCell id="qHMSGJQhuKfFcfL4bc5z-5" style="edgeStyle=orthogonalEdgeStyle;rounded=0;orthogonalLoop=1;jettySize=auto;html=1;exitX=0.5;exitY=1;exitDx=0;exitDy=0;entryX=0.5;entryY=0;entryDx=0;entryDy=0;" edge="1" parent="1" source="qHMSGJQhuKfFcfL4bc5z-9" target="qHMSGJQhuKfFcfL4bc5z-17">
          <mxGeometry relative="1" as="geometry" />
        </mxCell>
        <mxCell id="qHMSGJQhuKfFcfL4bc5z-6" value="R17 created" style="edgeLabel;html=1;align=center;verticalAlign=middle;resizable=0;points=[];" connectable="0" vertex="1" parent="qHMSGJQhuKfFcfL4bc5z-5">
          <mxGeometry x="-0.0618" y="-1" relative="1" as="geometry">
            <mxPoint as="offset" />
          </mxGeometry>
        </mxCell>
        <mxCell id="qHMSGJQhuKfFcfL4bc5z-7" style="edgeStyle=orthogonalEdgeStyle;rounded=0;orthogonalLoop=1;jettySize=auto;html=1;exitX=1;exitY=0.75;exitDx=0;exitDy=0;entryX=0;entryY=0.5;entryDx=0;entryDy=0;" edge="1" parent="1" source="qHMSGJQhuKfFcfL4bc5z-9" target="qHMSGJQhuKfFcfL4bc5z-18">
          <mxGeometry relative="1" as="geometry" />
        </mxCell>
        <mxCell id="qHMSGJQhuKfFcfL4bc5z-8" value="P108 has produced" style="edgeLabel;html=1;align=center;verticalAlign=middle;resizable=0;points=[];" connectable="0" vertex="1" parent="qHMSGJQhuKfFcfL4bc5z-7">
          <mxGeometry x="-0.0734" y="-1" relative="1" as="geometry">
            <mxPoint as="offset" />
          </mxGeometry>
        </mxCell>
        <mxCell id="qHMSGJQhuKfFcfL4bc5z-9" value="F28 Expression Creation" style="rounded=1;whiteSpace=wrap;html=1;fillColor=#82c3ec" vertex="1" parent="1">
          <mxGeometry x="585" y="284" width="120" height="60" as="geometry" />
        </mxCell>
        <mxCell id="qHMSGJQhuKfFcfL4bc5z-10" value="E65 Creation" style="rounded=1;whiteSpace=wrap;html=1;fillColor=#82c3ec" vertex="1" parent="1">
          <mxGeometry x="450" y="160" width="120" height="60" as="geometry" />
        </mxCell>
        <mxCell id="qHMSGJQhuKfFcfL4bc5z-11" value="E12 Production" style="rounded=1;whiteSpace=wrap;html=1;fillColor=#82c3ec" vertex="1" parent="1">
          <mxGeometry x="740" y="160" width="120" height="60" as="geometry" />
        </mxCell>
        <mxCell id="qHMSGJQhuKfFcfL4bc5z-12" style="edgeStyle=orthogonalEdgeStyle;rounded=0;orthogonalLoop=1;jettySize=auto;html=1;exitX=0.5;exitY=1;exitDx=0;exitDy=0;entryX=0;entryY=0.5;entryDx=0;entryDy=0;" edge="1" parent="1" source="qHMSGJQhuKfFcfL4bc5z-14" target="qHMSGJQhuKfFcfL4bc5z-17">
          <mxGeometry relative="1" as="geometry" />
        </mxCell>
        <mxCell id="qHMSGJQhuKfFcfL4bc5z-13" value="R3 is realized in" style="edgeLabel;html=1;align=center;verticalAlign=middle;resizable=0;points=[];" connectable="0" vertex="1" parent="qHMSGJQhuKfFcfL4bc5z-12">
          <mxGeometry x="0.0496" y="-2" relative="1" as="geometry">
            <mxPoint as="offset" />
          </mxGeometry>
        </mxCell>
        <mxCell id="qHMSGJQhuKfFcfL4bc5z-14" value="F1 Work" style="rounded=1;whiteSpace=wrap;html=1;fillColor=#fddc34" vertex="1" parent="1">
          <mxGeometry x="310" y="380" width="120" height="60" as="geometry" />
        </mxCell>
        <mxCell id="qHMSGJQhuKfFcfL4bc5z-15" style="edgeStyle=orthogonalEdgeStyle;rounded=0;orthogonalLoop=1;jettySize=auto;html=1;exitX=1;exitY=0.5;exitDx=0;exitDy=0;" edge="1" parent="1" source="qHMSGJQhuKfFcfL4bc5z-17" target="qHMSGJQhuKfFcfL4bc5z-18">
          <mxGeometry relative="1" as="geometry" />
        </mxCell>
        <mxCell id="qHMSGJQhuKfFcfL4bc5z-16" value="P128 is carried by" style="edgeLabel;html=1;align=center;verticalAlign=middle;resizable=0;points=[];" connectable="0" vertex="1" parent="qHMSGJQhuKfFcfL4bc5z-15">
          <mxGeometry x="-0.4181" y="-4" relative="1" as="geometry">
            <mxPoint as="offset" />
          </mxGeometry>
        </mxCell>
        <mxCell id="qHMSGJQhuKfFcfL4bc5z-17" value="F2 Expression" style="rounded=1;whiteSpace=wrap;html=1;fillColor=#fddc34" vertex="1" parent="1">
          <mxGeometry x="585" y="520" width="120" height="60" as="geometry" />
        </mxCell>
        <mxCell id="qHMSGJQhuKfFcfL4bc5z-18" value="E24 Physical Human-Made Thing" style="rounded=1;whiteSpace=wrap;html=1;fillColor=#e1ba9c" vertex="1" parent="1">
          <mxGeometry x="860" y="380" width="120" height="60" as="geometry" />
        </mxCell>
        <mxCell id="qHMSGJQhuKfFcfL4bc5z-19" style="edgeStyle=orthogonalEdgeStyle;rounded=0;orthogonalLoop=1;jettySize=auto;html=1;exitX=1;exitY=0.5;exitDx=0;exitDy=0;" edge="1" parent="1" source="qHMSGJQhuKfFcfL4bc5z-21" target="qHMSGJQhuKfFcfL4bc5z-14">
          <mxGeometry relative="1" as="geometry" />
        </mxCell>
        <mxCell id="qHMSGJQhuKfFcfL4bc5z-20" value="R16 iniitiated" style="edgeLabel;html=1;align=center;verticalAlign=middle;resizable=0;points=[];" connectable="0" vertex="1" parent="qHMSGJQhuKfFcfL4bc5z-19">
          <mxGeometry x="-0.3171" y="-3" relative="1" as="geometry">
            <mxPoint x="12" y="-3" as="offset" />
          </mxGeometry>
        </mxCell>
        <mxCell id="qHMSGJQhuKfFcfL4bc5z-21" value="F27 Work Conception" style="rounded=1;whiteSpace=wrap;html=1;fillColor=#82c3ec" vertex="1" parent="1">
          <mxGeometry x="90" y="380" width="120" height="60" as="geometry" />
        </mxCell>
      </root>
    </mxGraphModel>
  </diagram>
  <diagram id="2gj6C8pLTPlLrEmxjlSF" name="workflow">
    <mxGraphModel grid="1" page="1" gridSize="10" guides="1" tooltips="1" connect="1" arrows="1" fold="1" pageScale="1" pageWidth="1169" pageHeight="827" math="0" shadow="0">
      <root>
        <mxCell id="0" />
        <mxCell id="1" parent="0" />
        <mxCell id="ss9twUU-33yC7T8e9Qt7-2" style="edgeStyle=orthogonalEdgeStyle;rounded=0;orthogonalLoop=1;jettySize=auto;html=1;exitX=0.5;exitY=1;exitDx=0;exitDy=0;entryX=0;entryY=0.5;entryDx=0;entryDy=0;" edge="1" parent="1" source="ss9twUU-33yC7T8e9Qt7-4" target="ss9twUU-33yC7T8e9Qt7-5">
          <mxGeometry relative="1" as="geometry" />
        </mxCell>
        <mxCell id="ss9twUU-33yC7T8e9Qt7-3" value="R3 has realization" style="edgeLabel;html=1;align=center;verticalAlign=middle;resizable=0;points=[];" connectable="0" vertex="1" parent="ss9twUU-33yC7T8e9Qt7-2">
          <mxGeometry x="0.0496" y="-2" relative="1" as="geometry">
            <mxPoint as="offset" />
          </mxGeometry>
        </mxCell>
        <mxCell id="ss9twUU-33yC7T8e9Qt7-4" value="CC17 Projective Requirements" style="rounded=1;whiteSpace=wrap;html=1;fillColor=#fddc34" vertex="1" parent="1">
          <mxGeometry x="250" y="138" width="120" height="60" as="geometry" />
        </mxCell>
        <mxCell id="ss9twUU-33yC7T8e9Qt7-5" value="CC6 Programme" style="rounded=1;whiteSpace=wrap;html=1;fillColor=#fddc34" vertex="1" parent="1">
          <mxGeometry x="525" y="209" width="120" height="60" as="geometry" />
        </mxCell>
        <mxCell id="ss9twUU-33yC7T8e9Qt7-6" style="edgeStyle=orthogonalEdgeStyle;rounded=0;orthogonalLoop=1;jettySize=auto;html=1;exitX=1;exitY=0.5;exitDx=0;exitDy=0;" edge="1" parent="1" source="ss9twUU-33yC7T8e9Qt7-10" target="ss9twUU-33yC7T8e9Qt7-4">
          <mxGeometry relative="1" as="geometry" />
        </mxCell>
        <mxCell id="ss9twUU-33yC7T8e9Qt7-7" value="R16 iniitiated" style="edgeLabel;html=1;align=center;verticalAlign=middle;resizable=0;points=[];" connectable="0" vertex="1" parent="ss9twUU-33yC7T8e9Qt7-6">
          <mxGeometry x="-0.3171" y="-3" relative="1" as="geometry">
            <mxPoint x="12" y="-3" as="offset" />
          </mxGeometry>
        </mxCell>
        <mxCell id="ss9twUU-33yC7T8e9Qt7-8" style="edgeStyle=orthogonalEdgeStyle;rounded=0;orthogonalLoop=1;jettySize=auto;html=1;exitX=0.5;exitY=0;exitDx=0;exitDy=0;" edge="1" parent="1" source="ss9twUU-33yC7T8e9Qt7-10" target="ss9twUU-33yC7T8e9Qt7-44">
          <mxGeometry relative="1" as="geometry" />
        </mxCell>
        <mxCell id="ss9twUU-33yC7T8e9Qt7-9" value="P17 was motivated by" style="edgeLabel;html=1;align=center;verticalAlign=middle;resizable=0;points=[];" connectable="0" vertex="1" parent="ss9twUU-33yC7T8e9Qt7-8">
          <mxGeometry x="-0.1191" y="-1" relative="1" as="geometry">
            <mxPoint as="offset" />
          </mxGeometry>
        </mxCell>
        <mxCell id="ss9twUU-33yC7T8e9Qt7-10" value="CC14 Programme Conception" style="rounded=1;whiteSpace=wrap;html=1;fillColor=#82c3ec" vertex="1" parent="1">
          <mxGeometry x="20" y="138" width="120" height="60" as="geometry" />
        </mxCell>
        <mxCell id="ss9twUU-33yC7T8e9Qt7-11" style="edgeStyle=orthogonalEdgeStyle;rounded=0;orthogonalLoop=1;jettySize=auto;html=1;exitX=0.5;exitY=1;exitDx=0;exitDy=0;entryX=0;entryY=0.5;entryDx=0;entryDy=0;" edge="1" parent="1" source="ss9twUU-33yC7T8e9Qt7-13" target="ss9twUU-33yC7T8e9Qt7-18">
          <mxGeometry relative="1" as="geometry" />
        </mxCell>
        <mxCell id="ss9twUU-33yC7T8e9Qt7-12" value="R3 has realization" style="edgeLabel;html=1;align=center;verticalAlign=middle;resizable=0;points=[];" connectable="0" vertex="1" parent="ss9twUU-33yC7T8e9Qt7-11">
          <mxGeometry x="0.0496" y="-2" relative="1" as="geometry">
            <mxPoint as="offset" />
          </mxGeometry>
        </mxCell>
        <mxCell id="ss9twUU-33yC7T8e9Qt7-13" value="CC13 Design Concept" style="rounded=1;whiteSpace=wrap;html=1;fillColor=#fddc34" vertex="1" parent="1">
          <mxGeometry x="250" y="289" width="120" height="60" as="geometry" />
        </mxCell>
        <mxCell id="ss9twUU-33yC7T8e9Qt7-14" style="edgeStyle=orthogonalEdgeStyle;rounded=0;orthogonalLoop=1;jettySize=auto;html=1;exitX=0.5;exitY=0;exitDx=0;exitDy=0;entryX=0.5;entryY=1;entryDx=0;entryDy=0;" edge="1" parent="1" source="ss9twUU-33yC7T8e9Qt7-18" target="ss9twUU-33yC7T8e9Qt7-5">
          <mxGeometry relative="1" as="geometry" />
        </mxCell>
        <mxCell id="ss9twUU-33yC7T8e9Qt7-15" value="P67 refers to" style="edgeLabel;html=1;align=center;verticalAlign=middle;resizable=0;points=[];" connectable="0" vertex="1" parent="ss9twUU-33yC7T8e9Qt7-14">
          <mxGeometry x="0.0766" relative="1" as="geometry">
            <mxPoint as="offset" />
          </mxGeometry>
        </mxCell>
        <mxCell id="ss9twUU-33yC7T8e9Qt7-16" style="edgeStyle=orthogonalEdgeStyle;rounded=0;orthogonalLoop=1;jettySize=auto;html=1;exitX=1;exitY=0.5;exitDx=0;exitDy=0;entryX=1;entryY=0.75;entryDx=0;entryDy=0;" edge="1" parent="1" source="ss9twUU-33yC7T8e9Qt7-18" target="ss9twUU-33yC7T8e9Qt7-5">
          <mxGeometry relative="1" as="geometry">
            <Array as="points">
              <mxPoint x="700" y="390" />
              <mxPoint x="700" y="254" />
            </Array>
          </mxGeometry>
        </mxCell>
        <mxCell id="ss9twUU-33yC7T8e9Qt7-17" value="P165 incorporates" style="edgeLabel;html=1;align=center;verticalAlign=middle;resizable=0;points=[];" connectable="0" vertex="1" parent="ss9twUU-33yC7T8e9Qt7-16">
          <mxGeometry x="0.0649" relative="1" as="geometry">
            <mxPoint as="offset" />
          </mxGeometry>
        </mxCell>
        <mxCell id="ss9twUU-33yC7T8e9Qt7-18" value="CC1 Model" style="rounded=1;whiteSpace=wrap;html=1;fillColor=#fddc34" vertex="1" parent="1">
          <mxGeometry x="525" y="360" width="120" height="60" as="geometry" />
        </mxCell>
        <mxCell id="ss9twUU-33yC7T8e9Qt7-19" style="edgeStyle=orthogonalEdgeStyle;rounded=0;orthogonalLoop=1;jettySize=auto;html=1;exitX=1;exitY=0.5;exitDx=0;exitDy=0;" edge="1" parent="1" source="ss9twUU-33yC7T8e9Qt7-23" target="ss9twUU-33yC7T8e9Qt7-13">
          <mxGeometry relative="1" as="geometry" />
        </mxCell>
        <mxCell id="ss9twUU-33yC7T8e9Qt7-20" value="R16 iniitiated" style="edgeLabel;html=1;align=center;verticalAlign=middle;resizable=0;points=[];" connectable="0" vertex="1" parent="ss9twUU-33yC7T8e9Qt7-19">
          <mxGeometry x="-0.3171" y="-3" relative="1" as="geometry">
            <mxPoint x="12" y="-3" as="offset" />
          </mxGeometry>
        </mxCell>
        <mxCell id="ss9twUU-33yC7T8e9Qt7-21" style="edgeStyle=orthogonalEdgeStyle;rounded=0;orthogonalLoop=1;jettySize=auto;html=1;exitX=0.5;exitY=0;exitDx=0;exitDy=0;" edge="1" parent="1" source="ss9twUU-33yC7T8e9Qt7-23" target="ss9twUU-33yC7T8e9Qt7-10">
          <mxGeometry relative="1" as="geometry" />
        </mxCell>
        <mxCell id="ss9twUU-33yC7T8e9Qt7-22" value="P17 was motivated by" style="edgeLabel;html=1;align=center;verticalAlign=middle;resizable=0;points=[];" connectable="0" vertex="1" parent="ss9twUU-33yC7T8e9Qt7-21">
          <mxGeometry x="-0.0772" y="-2" relative="1" as="geometry">
            <mxPoint as="offset" />
          </mxGeometry>
        </mxCell>
        <mxCell id="ss9twUU-33yC7T8e9Qt7-23" value="CC15 Design Conception" style="rounded=1;whiteSpace=wrap;html=1;fillColor=#82c3ec" vertex="1" parent="1">
          <mxGeometry x="20" y="289" width="120" height="60" as="geometry" />
        </mxCell>
        <mxCell id="ss9twUU-33yC7T8e9Qt7-24" style="edgeStyle=orthogonalEdgeStyle;rounded=0;orthogonalLoop=1;jettySize=auto;html=1;exitX=0.5;exitY=1;exitDx=0;exitDy=0;entryX=0;entryY=0.5;entryDx=0;entryDy=0;" edge="1" parent="1" source="ss9twUU-33yC7T8e9Qt7-26" target="ss9twUU-33yC7T8e9Qt7-31">
          <mxGeometry relative="1" as="geometry" />
        </mxCell>
        <mxCell id="ss9twUU-33yC7T8e9Qt7-25" value="R3 has realization" style="edgeLabel;html=1;align=center;verticalAlign=middle;resizable=0;points=[];" connectable="0" vertex="1" parent="ss9twUU-33yC7T8e9Qt7-24">
          <mxGeometry x="0.0496" y="-2" relative="1" as="geometry">
            <mxPoint as="offset" />
          </mxGeometry>
        </mxCell>
        <mxCell id="ss9twUU-33yC7T8e9Qt7-26" value="CC3 Realization Concept" style="rounded=1;whiteSpace=wrap;html=1;fillColor=#fddc34" vertex="1" parent="1">
          <mxGeometry x="250" y="429" width="120" height="60" as="geometry" />
        </mxCell>
        <mxCell id="ss9twUU-33yC7T8e9Qt7-27" style="edgeStyle=orthogonalEdgeStyle;rounded=0;orthogonalLoop=1;jettySize=auto;html=1;exitX=0.5;exitY=0;exitDx=0;exitDy=0;entryX=0.5;entryY=1;entryDx=0;entryDy=0;" edge="1" parent="1" source="ss9twUU-33yC7T8e9Qt7-31" target="ss9twUU-33yC7T8e9Qt7-18">
          <mxGeometry relative="1" as="geometry" />
        </mxCell>
        <mxCell id="ss9twUU-33yC7T8e9Qt7-28" value="P67 refers to" style="edgeLabel;html=1;align=center;verticalAlign=middle;resizable=0;points=[];" connectable="0" vertex="1" parent="ss9twUU-33yC7T8e9Qt7-27">
          <mxGeometry x="-0.0503" y="-1" relative="1" as="geometry">
            <mxPoint as="offset" />
          </mxGeometry>
        </mxCell>
        <mxCell id="ss9twUU-33yC7T8e9Qt7-29" style="edgeStyle=orthogonalEdgeStyle;rounded=0;orthogonalLoop=1;jettySize=auto;html=1;exitX=1;exitY=0.5;exitDx=0;exitDy=0;entryX=1;entryY=0.75;entryDx=0;entryDy=0;" edge="1" parent="1" source="ss9twUU-33yC7T8e9Qt7-31" target="ss9twUU-33yC7T8e9Qt7-18">
          <mxGeometry relative="1" as="geometry">
            <Array as="points">
              <mxPoint x="700" y="530" />
              <mxPoint x="700" y="405" />
            </Array>
          </mxGeometry>
        </mxCell>
        <mxCell id="ss9twUU-33yC7T8e9Qt7-30" value="P165 incorporates" style="edgeLabel;html=1;align=center;verticalAlign=middle;resizable=0;points=[];" connectable="0" vertex="1" parent="ss9twUU-33yC7T8e9Qt7-29">
          <mxGeometry x="0.0978" y="1" relative="1" as="geometry">
            <mxPoint as="offset" />
          </mxGeometry>
        </mxCell>
        <mxCell id="ss9twUU-33yC7T8e9Qt7-31" value="CC4 Realization Plan" style="rounded=1;whiteSpace=wrap;html=1;fillColor=#fddc34" vertex="1" parent="1">
          <mxGeometry x="525" y="500" width="120" height="60" as="geometry" />
        </mxCell>
        <mxCell id="ss9twUU-33yC7T8e9Qt7-32" style="edgeStyle=orthogonalEdgeStyle;rounded=0;orthogonalLoop=1;jettySize=auto;html=1;exitX=1;exitY=0.5;exitDx=0;exitDy=0;" edge="1" parent="1" source="ss9twUU-33yC7T8e9Qt7-36" target="ss9twUU-33yC7T8e9Qt7-26">
          <mxGeometry relative="1" as="geometry" />
        </mxCell>
        <mxCell id="ss9twUU-33yC7T8e9Qt7-33" value="R16 iniitiated" style="edgeLabel;html=1;align=center;verticalAlign=middle;resizable=0;points=[];" connectable="0" vertex="1" parent="ss9twUU-33yC7T8e9Qt7-32">
          <mxGeometry x="-0.3171" y="-3" relative="1" as="geometry">
            <mxPoint x="12" y="-3" as="offset" />
          </mxGeometry>
        </mxCell>
        <mxCell id="ss9twUU-33yC7T8e9Qt7-34" style="edgeStyle=orthogonalEdgeStyle;rounded=0;orthogonalLoop=1;jettySize=auto;html=1;exitX=0.5;exitY=0;exitDx=0;exitDy=0;" edge="1" parent="1" source="ss9twUU-33yC7T8e9Qt7-36" target="ss9twUU-33yC7T8e9Qt7-23">
          <mxGeometry relative="1" as="geometry" />
        </mxCell>
        <mxCell id="ss9twUU-33yC7T8e9Qt7-35" value="P17 was motivated by" style="edgeLabel;html=1;align=center;verticalAlign=middle;resizable=0;points=[];" connectable="0" vertex="1" parent="ss9twUU-33yC7T8e9Qt7-34">
          <mxGeometry x="-0.1253" y="-1" relative="1" as="geometry">
            <mxPoint as="offset" />
          </mxGeometry>
        </mxCell>
        <mxCell id="ss9twUU-33yC7T8e9Qt7-36" value="CC16 Realization Planning" style="rounded=1;whiteSpace=wrap;html=1;fillColor=#82c3ec" vertex="1" parent="1">
          <mxGeometry x="20" y="429" width="120" height="60" as="geometry" />
        </mxCell>
        <mxCell id="ss9twUU-33yC7T8e9Qt7-37" style="edgeStyle=orthogonalEdgeStyle;rounded=0;orthogonalLoop=1;jettySize=auto;html=1;exitX=0.5;exitY=0;exitDx=0;exitDy=0;" edge="1" parent="1" source="ss9twUU-33yC7T8e9Qt7-41" target="ss9twUU-33yC7T8e9Qt7-36">
          <mxGeometry relative="1" as="geometry" />
        </mxCell>
        <mxCell id="ss9twUU-33yC7T8e9Qt7-38" value="P17 was motivated by" style="edgeLabel;html=1;align=center;verticalAlign=middle;resizable=0;points=[];" connectable="0" vertex="1" parent="ss9twUU-33yC7T8e9Qt7-37">
          <mxGeometry x="0.0597" relative="1" as="geometry">
            <mxPoint as="offset" />
          </mxGeometry>
        </mxCell>
        <mxCell id="ss9twUU-33yC7T8e9Qt7-39" style="edgeStyle=orthogonalEdgeStyle;rounded=0;orthogonalLoop=1;jettySize=auto;html=1;exitX=1;exitY=0.5;exitDx=0;exitDy=0;entryX=0.5;entryY=1;entryDx=0;entryDy=0;" edge="1" parent="1" source="ss9twUU-33yC7T8e9Qt7-41" target="ss9twUU-33yC7T8e9Qt7-31">
          <mxGeometry relative="1" as="geometry" />
        </mxCell>
        <mxCell id="ss9twUU-33yC7T8e9Qt7-40" value="P33 used specific technique" style="edgeLabel;html=1;align=center;verticalAlign=middle;resizable=0;points=[];" connectable="0" vertex="1" parent="ss9twUU-33yC7T8e9Qt7-39">
          <mxGeometry x="-0.5357" y="2" relative="1" as="geometry">
            <mxPoint as="offset" />
          </mxGeometry>
        </mxCell>
        <mxCell id="ss9twUU-33yC7T8e9Qt7-41" value="CC2 Realization" style="rounded=1;whiteSpace=wrap;html=1;fillColor=#82c3ec" vertex="1" parent="1">
          <mxGeometry x="20" y="589" width="120" height="60" as="geometry" />
        </mxCell>
        <mxCell id="ss9twUU-33yC7T8e9Qt7-42" style="edgeStyle=orthogonalEdgeStyle;rounded=0;orthogonalLoop=1;jettySize=auto;html=1;exitX=1;exitY=0.5;exitDx=0;exitDy=0;entryX=0;entryY=0.5;entryDx=0;entryDy=0;" edge="1" parent="1" source="ss9twUU-33yC7T8e9Qt7-44" target="ss9twUU-33yC7T8e9Qt7-45">
          <mxGeometry relative="1" as="geometry" />
        </mxCell>
        <mxCell id="ss9twUU-33yC7T8e9Qt7-43" value="R16 iniitiated" style="edgeLabel;html=1;align=center;verticalAlign=middle;resizable=0;points=[];" connectable="0" vertex="1" parent="ss9twUU-33yC7T8e9Qt7-42">
          <mxGeometry x="-0.4605" relative="1" as="geometry">
            <mxPoint x="20" as="offset" />
          </mxGeometry>
        </mxCell>
        <mxCell id="ss9twUU-33yC7T8e9Qt7-44" value="CC9 Oeuvre Conception" style="rounded=1;whiteSpace=wrap;html=1;fillColor=#82c3ec" vertex="1" parent="1">
          <mxGeometry x="20" y="19" width="120" height="60" as="geometry" />
        </mxCell>
        <mxCell id="ss9twUU-33yC7T8e9Qt7-45" value="CC20 Oeuvre" style="rounded=1;whiteSpace=wrap;html=1;fillColor=#fddc34" vertex="1" parent="1">
          <mxGeometry x="250" y="19" width="120" height="60" as="geometry" />
        </mxCell>
        <mxCell id="oIjAGgn25eGgHtB2vA4F-7" style="edgeStyle=orthogonalEdgeStyle;rounded=0;orthogonalLoop=1;jettySize=auto;html=1;exitX=0.5;exitY=1;exitDx=0;exitDy=0;entryX=0.5;entryY=0;entryDx=0;entryDy=0;" edge="1" parent="1" source="ss9twUU-33yC7T8e9Qt7-41" target="oIjAGgn25eGgHtB2vA4F-11">
          <mxGeometry relative="1" as="geometry">
            <mxPoint x="655" y="388" as="sourcePoint" />
          </mxGeometry>
        </mxCell>
        <mxCell id="oIjAGgn25eGgHtB2vA4F-8" value="P108 has &lt;br&gt;produced" style="edgeLabel;html=1;align=center;verticalAlign=middle;resizable=0;points=[];" connectable="0" vertex="1" parent="oIjAGgn25eGgHtB2vA4F-7">
          <mxGeometry x="-0.0734" y="-1" relative="1" as="geometry">
            <mxPoint x="1" y="-2" as="offset" />
          </mxGeometry>
        </mxCell>
        <mxCell id="oIjAGgn25eGgHtB2vA4F-9" style="edgeStyle=orthogonalEdgeStyle;rounded=0;orthogonalLoop=1;jettySize=auto;html=1;exitX=1;exitY=0.75;exitDx=0;exitDy=0;" edge="1" parent="1" source="ss9twUU-33yC7T8e9Qt7-41" target="oIjAGgn25eGgHtB2vA4F-12">
          <mxGeometry relative="1" as="geometry">
            <mxPoint x="655" y="358" as="sourcePoint" />
          </mxGeometry>
        </mxCell>
        <mxCell id="oIjAGgn25eGgHtB2vA4F-10" value="P94 has &lt;br&gt;created" style="edgeLabel;html=1;align=center;verticalAlign=middle;resizable=0;points=[];" connectable="0" vertex="1" parent="oIjAGgn25eGgHtB2vA4F-9">
          <mxGeometry x="-0.4261" relative="1" as="geometry">
            <mxPoint x="88" y="55" as="offset" />
          </mxGeometry>
        </mxCell>
        <mxCell id="oIjAGgn25eGgHtB2vA4F-13" style="edgeStyle=orthogonalEdgeStyle;rounded=0;orthogonalLoop=1;jettySize=auto;html=1;exitX=1;exitY=0.5;exitDx=0;exitDy=0;entryX=0;entryY=0.5;entryDx=0;entryDy=0;" edge="1" parent="1" source="oIjAGgn25eGgHtB2vA4F-11" target="oIjAGgn25eGgHtB2vA4F-12">
          <mxGeometry relative="1" as="geometry" />
        </mxCell>
        <mxCell id="oIjAGgn25eGgHtB2vA4F-14" value="P128 is &lt;br&gt;carried by" style="edgeLabel;html=1;align=center;verticalAlign=middle;resizable=0;points=[];" connectable="0" vertex="1" parent="oIjAGgn25eGgHtB2vA4F-13">
          <mxGeometry x="-0.1979" relative="1" as="geometry">
            <mxPoint as="offset" />
          </mxGeometry>
        </mxCell>
        <mxCell id="oIjAGgn25eGgHtB2vA4F-11" value="E24 Physical Human-Made Thing" style="rounded=1;whiteSpace=wrap;html=1;fillColor=#e1ba9c" vertex="1" parent="1">
          <mxGeometry x="20" y="749" width="120" height="60" as="geometry" />
        </mxCell>
        <mxCell id="oIjAGgn25eGgHtB2vA4F-12" value="E73 Information Object" style="rounded=1;whiteSpace=wrap;html=1;fillColor=#fddc34" vertex="1" parent="1">
          <mxGeometry x="250" y="749" width="120" height="60" as="geometry" />
        </mxCell>
      </root>
    </mxGraphModel>
  </diagram>
</mxfile>
